27.176	-7.623	-21.364	1.000	1	Sub001_Amicro1_Hippocampus_R
30.437	-6.800	-19.899	2.000	1	Sub001_Amicro2_Amygdala_R
29.545	-16.577	-13.362	1.000	1	Sub001_Bmicro1_Hippocampus_R
25.597	-38.287	-1.834	1.000	1	Sub001_C1_Hippocampus_R
29.044	-37.136	-2.463	1.000	1	Sub001_C2_Hippocampus_R
32.492	-35.984	-3.092	1.000	1	Sub001_C3_Hippocampus_R
33.275	5.523	-40.311	7.000	1	Sub001_D1_Fusiform_R
27.826	-33.669	-18.441	7.000	1	Sub001_E1_Fusiform_R
30.604	-35.879	-17.475	7.000	1	Sub001_E2_Fusiform_R
33.382	-38.089	-16.509	7.000	1	Sub001_E3_Fusiform_R
41.717	-44.719	-13.610	7.000	1	Sub001_E6_Fusiform_R
44.495	-46.929	-12.644	7.000	1	Sub001_E7_Fusiform_R
16.658	-6.486	-26.751	2.000	1	Sub004_A1_Amygdala_R
20.260	-5.796	-26.750	2.000	1	Sub004_A2_Amygdala_R
23.861	-5.106	-26.749	2.000	1	Sub004_A3_Amygdala_R
27.463	-4.416	-26.748	2.000	1	Sub004_A4_Amygdala_R
31.065	-3.726	-26.747	2.000	1	Sub004_A5_Amygdala_R
18.703	-13.046	-22.641	1.000	1	Sub004_B1_Hippocampus_R
22.322	-12.668	-22.481	1.000	1	Sub004_B2_Hippocampus_R
25.942	-12.290	-22.321	1.000	1	Sub004_B3_Hippocampus_R
29.561	-11.912	-22.160	1.000	1	Sub004_B4_Hippocampus_R
24.083	-26.110	-13.745	1.000	1	Sub004_C2_Hippocampus_R
27.452	-26.905	-12.831	1.000	1	Sub004_C3_Hippocampus_R
30.821	-27.699	-11.917	1.000	1	Sub004_C4_Hippocampus_R
28.291	-19.982	-31.495	7.000	1	Sub004_D1_Fusiform_R
30.787	-22.184	-30.218	7.000	1	Sub004_D2_Fusiform_R
33.282	-24.386	-28.940	7.000	1	Sub004_D3_Fusiform_R
35.778	-26.588	-27.663	7.000	1	Sub004_D4_Fusiform_R
16.968	-4.507	-19.903	2.000	1	Sub005_R-Amyg-MMa1_Amygdala_R
21.782	-3.925	-20.837	2.000	1	Sub005_R-Amyg-MMa2_Amygdala_R
26.595	-3.342	-21.771	2.000	1	Sub005_R-Amyg-MMa3_Amygdala_R
28.744	-15.560	-19.397	1.000	1	Sub005_R-hipp-BF1_Hippocampus_R
33.649	-15.735	-19.302	1.000	1	Sub005_R-hipp-BF2_Hippocampus_R
-10.557	-5.878	-20.145	33.000	1	Sub005_L-Amyg-MMa1_Amygdala_L
-15.306	-4.562	-20.307	33.000	1	Sub005_L-Amyg-MMa2_Amygdala_L
-20.055	-3.246	-20.468	33.000	1	Sub005_L-Amyg-MMa3_Amygdala_L
-24.804	-1.930	-20.630	33.000	1	Sub005_L-Amyg-MMa4_Amygdala_L
-26.372	-14.391	-17.005	35.000	1	Sub005_L-Hip-BF1_Hippocampus_L
-31.144	-13.245	-17.535	35.000	1	Sub005_L-Hip-BF2_Hippocampus_L
-16.667	-4.377	-16.113	33.000	1	Sub007_A1_Amygdala_L
-20.175	-3.270	-17.260	33.000	1	Sub007_A2_Amygdala_L
-23.683	-2.163	-18.408	33.000	1	Sub007_A3_Amygdala_L
-27.190	-1.056	-19.556	33.000	1	Sub007_A4_Amygdala_L
-28.283	-13.169	-18.849	35.000	1	Sub007_B3_Hippocampus_L
-32.058	-13.786	-18.001	35.000	1	Sub007_B4_Hippocampus_L
-27.005	-17.824	-12.224	35.000	1	Sub007_C1_Hippocampus_L
-20.734	-11.934	-20.546	35.000	1	Sub007_B1_Hippocampus_L
-24.509	-12.552	-19.698	35.000	1	Sub007_B2_Hippocampus_L
-29.920	-20.425	-11.835	35.000	1	Sub007_C2_Hippocampus_L
-32.835	-23.026	-11.446	35.000	1	Sub007_C3_Hippocampus_L
-35.751	-25.627	-11.057	35.000	1	Sub007_C4_Hippocampus_L
-22.229	-11.543	-27.853	35.000	1	Sub007_F2_Hippocampus_L
-25.992	-10.772	-28.190	35.000	1	Sub007_F3_Hippocampus_L
-29.754	-10.000	-28.527	35.000	1	Sub007_F4_Hippocampus_L
-33.517	-9.229	-28.865	52.000	1	Sub007_F5_Fusiform_L
-25.278	-43.401	-11.288	52.000	1	Sub007_H4_Fusiform_L
-29.066	-44.013	-12.048	52.000	1	Sub007_H5_Fusiform_L
-15.369	-6.970	-21.586	33.000	1	Sub008_A-Amy-mTL1_Amygdala_L
-18.910	-6.258	-21.775	33.000	1	Sub008_A-Amy-mTL2_Amygdala_L
-22.450	-5.546	-21.964	33.000	1	Sub008_A-Amy-mTL3_Amygdala_L
-25.991	-4.834	-22.153	33.000	1	Sub008_A-Amy-mTL4_Amygdala_L
-29.531	-4.122	-22.342	33.000	1	Sub008_A-Amy-mTL5_Amygdala_L
-28.028	-18.436	-25.105	35.000	1	Sub008_B-aHippo1_Hippocampus_L
-31.556	-18.737	-24.327	35.000	1	Sub008_B-aHippo2_Hippocampus_L
-25.297	-28.379	-12.528	35.000	1	Sub008_C-cHippo1_Hippocampus_L
-27.846	-30.957	-11.625	35.000	1	Sub008_C-cHippo2_Hippocampus_L
-30.394	-33.536	-10.721	35.000	1	Sub008_C-cHippo3_Hippocampus_L
-23.023	-48.599	-18.521	52.000	1	Sub008_H-vTL2_Fusiform_L
-26.484	-49.651	-18.178	52.000	1	Sub008_H-vTL3_Fusiform_L
-29.946	-50.703	-17.836	52.000	1	Sub008_H-vTL4_Fusiform_L
24.251	-9.274	-21.403	2.000	1	Sub009_A1_Amygdala_R
27.411	-7.793	-20.694	2.000	1	Sub009_A2_Amygdala_R
30.572	-6.313	-19.986	2.000	1	Sub009_A3_Amygdala_R
25.874	-19.430	-21.931	1.000	1	Sub009_B1_Hippocampus_R
29.181	-20.364	-20.787	1.000	1	Sub009_B2_Hippocampus_R
32.489	-21.298	-19.643	1.000	1	Sub009_B3_Hippocampus_R
