16.658	-6.486	-26.751	2	1.000	A1_Amygdala_R
20.260	-5.796	-26.750	2	1.000	A2_Amygdala_R
23.861	-5.106	-26.749	2	1.000	A3_Amygdala_R
27.463	-4.416	-26.748	2	1.000	A4_Amygdala_R
31.065	-3.726	-26.747	2	1.000	A5_Amygdala_R
34.667	-3.036	-26.746	1	1.000	A6_White_R
38.268	-2.346	-26.745	1	1.000	A7_White_R
41.870	-1.656	-26.744	1	1.000	A8_White_R
45.472	-0.966	-26.743	1	1.000	A9_White_R
49.074	-0.276	-26.743	1	1.000	A10_Middle_temporal_R
52.676	0.414	-26.742	1	1.000	A11_Middle_temporal_R
56.277	1.104	-26.741	1	1.000	A12_Middle_temporal_R
18.703	-13.046	-22.641	3	1.000	B1_Hippocampus_R
22.322	-12.668	-22.481	3	1.000	B2_Hippocampus_R
25.942	-12.290	-22.321	3	1.000	B3_Hippocampus_R
29.561	-11.912	-22.160	3	1.000	B4_Hippocampus_R
33.181	-11.534	-22.000	1	1.000	B5_Ventricle_inf-lat_R
36.800	-11.156	-21.840	1	1.000	B6_White_R
40.420	-10.778	-21.680	1	1.000	B7_White_R
44.039	-10.400	-21.519	1	1.000	B8_White_R
47.659	-10.021	-21.359	1	1.000	B9_Middle_temporal_R
51.278	-9.643	-21.199	1	1.000	B10_White_R
54.898	-9.265	-21.039	1	1.000	B11_White_R
58.517	-8.887	-20.878	1	1.000	B12_White_R
20.714	-25.316	-14.659	1	1.000	C1_White_R
24.083	-26.110	-13.745	3	1.000	C2_Hippocampus_R
27.452	-26.905	-12.831	3	1.000	C3_Hippocampus_R
30.821	-27.699	-11.917	3	1.000	C4_Hippocampus_R
34.190	-28.494	-11.003	1	1.000	C5_White_R
37.559	-29.288	-10.089	1	1.000	C6_White_R
40.928	-30.083	-9.175	1	1.000	C7_White_R
44.297	-30.877	-8.261	1	1.000	C8_White_R
47.666	-31.672	-7.347	1	1.000	C9_Middle_temporal_R
51.035	-32.466	-6.433	1	1.000	C10_Middle_temporal_R
54.403	-33.261	-5.519	1	1.000	C11_Banks_sts_R
57.772	-34.055	-4.605	1	1.000	C12_Banks_sts_R
61.141	-34.850	-3.691	1	1.000	C13_Banks_sts_R
64.510	-35.644	-2.777	1	1.000	C14_Middle_temporal_R
67.879	-36.439	-1.863	1	1.000	C15_Middle_temporal_R
71.248	-37.233	-0.948	1	1.000	C16_Middle_temporal_R
28.291	-19.982	-31.495	4	1.000	D1_Fusiform_R
30.787	-22.184	-30.218	4	1.000	D2_Fusiform_R
33.282	-24.386	-28.940	4	1.000	D3_Fusiform_R
35.778	-26.588	-27.663	4	1.000	D4_Fusiform_R
38.274	-28.790	-26.385	1	1.000	D5_Inferior_temporal_R
40.769	-30.992	-25.108	1	1.000	D6_Inferior_temporal_R
43.265	-33.193	-23.830	1	1.000	D7_Inferior_temporal_R
45.760	-35.395	-22.553	1	1.000	D8_Inferior_temporal_R
48.256	-37.597	-21.276	1	1.000	D9_Inferior_temporal_R
50.751	-39.799	-19.998	1	1.000	D10_White_R
53.247	-42.001	-18.721	1	1.000	D11_Inferior_temporal_R
55.742	-44.203	-17.443	1	1.000	D12_Inferior_temporal_R
8.086	15.509	-23.005	1	1.000	E1_Medial_orbitofrontal_R
11.047	17.341	-21.734	1	1.000	E2_Lateral_orbitofrontal_R
14.009	19.173	-20.463	1	1.000	E3_Lateral_orbitofrontal_R
16.971	21.005	-19.191	1	1.000	E4_Lateral_orbitofrontal_R
19.932	22.837	-17.920	1	1.000	E5_Lateral_orbitofrontal_R
22.894	24.669	-16.649	1	1.000	E6_Lateral_orbitofrontal_R
25.856	26.502	-15.378	1	1.000	E7_White_R
28.817	28.334	-14.106	1	1.000	E8_Lateral_orbitofrontal_R
31.779	30.166	-12.835	1	1.000	E9_Lateral_orbitofrontal_R
34.741	31.998	-11.564	1	1.000	E10_White_R
37.702	33.830	-10.292	1	1.000	E11_Lateral_orbitofrontal_R
40.664	35.662	-9.021	1	1.000	E12_Pars_orbitalis_R
43.626	37.494	-7.750	1	1.000	E13_Pars_orbitalis_R
46.587	39.326	-6.479	1	1.000	E14_Pars_orbitalis_R
49.549	41.158	-5.207	1	1.000	E15_Pars_triangularis_R
52.511	42.990	-3.936	1	1.000	E16_Pars_triangularis_R
33.025	-12.538	-13.125	1	1.000	F1_White_R
35.779	-12.804	-10.579	1	1.000	F2_White_R
38.533	-13.070	-8.033	1	1.000	F3_Superior_temporal_R
41.286	-13.336	-5.486	1	1.000	F4_Superior_temporal_R
44.040	-13.602	-2.940	1	1.000	F5_Superior_temporal_R
46.793	-13.868	-0.394	1	1.000	F6_White_R
49.547	-14.135	2.152	1	1.000	F7_Superior_temporal_R
52.301	-14.401	4.699	1	1.000	F8_Superior_temporal_R
55.054	-14.667	7.245	1	1.000	F9_Superior_temporal_R
57.808	-14.933	9.791	1	1.000	F10_Superior_temporal_R
60.562	-15.199	12.338	1	1.000	F11_Supramarginal_R
63.315	-15.465	14.884	1	1.000	F12_Supramarginal_R
3.502	24.080	-6.192	1	1.000	G1_Rostral_ant_cing_R
4.929	27.246	-5.024	1	1.000	G2_Rostral_ant_cing_R
6.355	30.413	-3.856	1	1.000	G3_White_R
7.782	33.580	-2.687	1	1.000	G4_Rostral_ant_cing_R
9.208	36.746	-1.519	1	1.000	G5_White_R
10.635	39.913	-0.351	1	1.000	G6_White_R
12.061	43.079	0.817	1	1.000	G7_Medial_orbitofrontal_R
13.487	46.246	1.985	1	1.000	G8_Medial_orbitofrontal_R
14.914	49.412	3.153	1	1.000	G9_White_R
16.340	52.579	4.321	1	1.000	G10_White_R
17.767	55.745	5.489	1	1.000	G11_White_R
19.193	58.912	6.657	1	1.000	G12_Rostral_mid_front_R
4.162	39.592	5.275	1	1.000	H1_Rostral_ant_cing_R
6.229	41.511	7.792	1	1.000	H2_Rostral_ant_cing_R
8.295	43.429	10.308	1	1.000	H3_White_R
10.362	45.348	12.825	1	1.000	H4_Superior_frontal_R
12.428	47.266	15.341	1	1.000	H5_Superior_frontal_R
14.494	49.185	17.858	1	1.000	H6_White_R
16.561	51.103	20.374	1	1.000	H7_White_R
18.627	53.022	22.891	1	1.000	H8_White_R
20.694	54.940	25.407	1	1.000	H9_Rostral_mid_front_R
22.760	56.858	27.924	1	1.000	H10_Rostral_mid_front_R
10.038	-27.024	0.016	1	1.000	I1_Thalamus_R
12.312	-24.260	0.951	1	1.000	I2_Thalamus_R
14.585	-21.496	1.887	1	1.000	I3_Thalamus_R
16.859	-18.733	2.823	1	1.000	I4_Thalamus_R
19.132	-15.969	3.759	1	1.000	I5_White_R
21.406	-13.205	4.695	1	1.000	I6_White_R
23.679	-10.442	5.630	1	1.000	I7_White_R
25.953	-7.678	6.566	1	1.000	I8_Putamen_R
28.226	-4.915	7.502	1	1.000	I9_White_R
30.500	-2.151	8.438	1	1.000	I10_White_R
32.774	0.613	9.373	1	1.000	I11_White_R
35.047	3.376	10.309	1	1.000	I12_Precentral_R
37.321	6.140	11.245	1	1.000	I13_Precentral_R
39.594	8.904	12.181	1	1.000	I14_White_R
41.868	11.667	13.117	1	1.000	I15_White_R
44.141	14.431	14.052	1	1.000	I16_White_R
5.988	-3.067	34.291	1	1.000	J1_White_R
6.807	-1.890	37.986	1	1.000	J2_Posterior_cingulate_R
7.625	-0.713	41.681	1	1.000	J3_Superior_frontal_R
8.443	0.463	45.376	1	1.000	J4_White_R
9.261	1.640	49.072	1	1.000	J5_White_R
10.080	2.817	52.767	1	1.000	J6_Superior_frontal_R
10.898	3.994	56.462	1	1.000	J7_White_R
11.716	5.171	60.157	1	1.000	J8_White_R
12.535	6.348	63.853	1	1.000	J9_White_R
13.353	7.525	67.548	1	1.000	J10_Superior_frontal_R
