16.658	-6.486	-26.751	1.000	1	A1_Amygdala_R
20.260	-5.796	-26.750	1.000	1	A2_Amygdala_R
23.861	-5.106	-26.749	1.000	1	A3_Amygdala_R
27.463	-4.416	-26.748	1.000	1	A4_Amygdala_R
31.065	-3.726	-26.747	1.000	1	A5_Amygdala_R
34.667	-3.036	-26.746	2.000	1	A6_White_R
38.268	-2.346	-26.745	2.000	1	A7_White_R
41.870	-1.656	-26.744	2.000	1	A8_White_R
45.472	-0.966	-26.743	2.000	1	A9_White_R
49.074	-0.276	-26.743	3.000	1	A10_Middle_temporal_R
52.676	0.414	-26.742	3.000	1	A11_Middle_temporal_R
56.277	1.104	-26.741	3.000	1	A12_Middle_temporal_R
18.703	-13.046	-22.641	4.000	1	B1_Hippocampus_R
22.322	-12.668	-22.481	4.000	1	B2_Hippocampus_R
25.942	-12.290	-22.321	4.000	1	B3_Hippocampus_R
29.561	-11.912	-22.160	4.000	1	B4_Hippocampus_R
33.181	-11.534	-22.000	5.000	1	B5_Ventricle_inf-lat_R
36.800	-11.156	-21.840	2.000	1	B6_White_R
40.420	-10.778	-21.680	2.000	1	B7_White_R
44.039	-10.400	-21.519	2.000	1	B8_White_R
47.659	-10.021	-21.359	3.000	1	B9_Middle_temporal_R
51.278	-9.643	-21.199	2.000	1	B10_White_R
54.898	-9.265	-21.039	2.000	1	B11_White_R
58.517	-8.887	-20.878	2.000	1	B12_White_R
20.714	-25.316	-14.659	2.000	1	C1_White_R
24.083	-26.110	-13.745	4.000	1	C2_Hippocampus_R
27.452	-26.905	-12.831	4.000	1	C3_Hippocampus_R
30.821	-27.699	-11.917	4.000	1	C4_Hippocampus_R
34.190	-28.494	-11.003	2.000	1	C5_White_R
37.559	-29.288	-10.089	2.000	1	C6_White_R
40.928	-30.083	-9.175	2.000	1	C7_White_R
44.297	-30.877	-8.261	2.000	1	C8_White_R
47.666	-31.672	-7.347	3.000	1	C9_Middle_temporal_R
51.035	-32.466	-6.433	3.000	1	C10_Middle_temporal_R
54.403	-33.261	-5.519	6.000	1	C11_Banks_sts_R
57.772	-34.055	-4.605	6.000	1	C12_Banks_sts_R
61.141	-34.850	-3.691	6.000	1	C13_Banks_sts_R
64.510	-35.644	-2.777	3.000	1	C14_Middle_temporal_R
67.879	-36.439	-1.863	3.000	1	C15_Middle_temporal_R
71.248	-37.233	-0.948	3.000	1	C16_Middle_temporal_R
28.291	-19.982	-31.495	7.000	1	D1_Fusiform_R
30.787	-22.184	-30.218	7.000	1	D2_Fusiform_R
33.282	-24.386	-28.940	7.000	1	D3_Fusiform_R
35.778	-26.588	-27.663	7.000	1	D4_Fusiform_R
38.274	-28.790	-26.385	8.000	1	D5_Inferior_temporal_R
40.769	-30.992	-25.108	8.000	1	D6_Inferior_temporal_R
43.265	-33.193	-23.830	8.000	1	D7_Inferior_temporal_R
45.760	-35.395	-22.553	8.000	1	D8_Inferior_temporal_R
48.256	-37.597	-21.276	8.000	1	D9_Inferior_temporal_R
50.751	-39.799	-19.998	2.000	1	D10_White_R
53.247	-42.001	-18.721	8.000	1	D11_Inferior_temporal_R
55.742	-44.203	-17.443	8.000	1	D12_Inferior_temporal_R
8.086	15.509	-23.005	9.000	1	E1_Medial_orbitofrontal_R
11.047	17.341	-21.734	10.000	1	E2_Lateral_orbitofrontal_R
14.009	19.173	-20.463	10.000	1	E3_Lateral_orbitofrontal_R
16.971	21.005	-19.191	10.000	1	E4_Lateral_orbitofrontal_R
19.932	22.837	-17.920	10.000	1	E5_Lateral_orbitofrontal_R
22.894	24.669	-16.649	10.000	1	E6_Lateral_orbitofrontal_R
25.856	26.502	-15.378	2.000	1	E7_White_R
28.817	28.334	-14.106	10.000	1	E8_Lateral_orbitofrontal_R
31.779	30.166	-12.835	10.000	1	E9_Lateral_orbitofrontal_R
34.741	31.998	-11.564	2.000	1	E10_White_R
37.702	33.830	-10.292	10.000	1	E11_Lateral_orbitofrontal_R
40.664	35.662	-9.021	11.000	1	E12_Pars_orbitalis_R
43.626	37.494	-7.750	11.000	1	E13_Pars_orbitalis_R
46.587	39.326	-6.479	11.000	1	E14_Pars_orbitalis_R
49.549	41.158	-5.207	12.000	1	E15_Pars_triangularis_R
52.511	42.990	-3.936	12.000	1	E16_Pars_triangularis_R
33.025	-12.538	-13.125	2.000	1	F1_White_R
35.779	-12.804	-10.579	2.000	1	F2_White_R
38.533	-13.070	-8.033	13.000	1	F3_Superior_temporal_R
41.286	-13.336	-5.486	13.000	1	F4_Superior_temporal_R
44.040	-13.602	-2.940	13.000	1	F5_Superior_temporal_R
46.793	-13.868	-0.394	2.000	1	F6_White_R
49.547	-14.135	2.152	13.000	1	F7_Superior_temporal_R
52.301	-14.401	4.699	13.000	1	F8_Superior_temporal_R
55.054	-14.667	7.245	13.000	1	F9_Superior_temporal_R
57.808	-14.933	9.791	13.000	1	F10_Superior_temporal_R
60.562	-15.199	12.338	14.000	1	F11_Supramarginal_R
63.315	-15.465	14.884	14.000	1	F12_Supramarginal_R
3.502	24.080	-6.192	15.000	1	G1_Rostral_ant_cing_R
4.929	27.246	-5.024	15.000	1	G2_Rostral_ant_cing_R
6.355	30.413	-3.856	2.000	1	G3_White_R
7.782	33.580	-2.687	15.000	1	G4_Rostral_ant_cing_R
9.208	36.746	-1.519	2.000	1	G5_White_R
10.635	39.913	-0.351	2.000	1	G6_White_R
12.061	43.079	0.817	9.000	1	G7_Medial_orbitofrontal_R
13.487	46.246	1.985	9.000	1	G8_Medial_orbitofrontal_R
14.914	49.412	3.153	2.000	1	G9_White_R
16.340	52.579	4.321	2.000	1	G10_White_R
17.767	55.745	5.489	2.000	1	G11_White_R
19.193	58.912	6.657	16.000	1	G12_Rostral_mid_front_R
4.162	39.592	5.275	15.000	1	H1_Rostral_ant_cing_R
6.229	41.511	7.792	15.000	1	H2_Rostral_ant_cing_R
8.295	43.429	10.308	2.000	1	H3_White_R
10.362	45.348	12.825	17.000	1	H4_Superior_frontal_R
12.428	47.266	15.341	17.000	1	H5_Superior_frontal_R
14.494	49.185	17.858	2.000	1	H6_White_R
16.561	51.103	20.374	2.000	1	H7_White_R
18.627	53.022	22.891	2.000	1	H8_White_R
20.694	54.940	25.407	16.000	1	H9_Rostral_mid_front_R
22.760	56.858	27.924	16.000	1	H10_Rostral_mid_front_R
10.038	-27.024	0.016	18.000	1	I1_Thalamus_R
12.312	-24.260	0.951	18.000	1	I2_Thalamus_R
14.585	-21.496	1.887	18.000	1	I3_Thalamus_R
16.859	-18.733	2.823	18.000	1	I4_Thalamus_R
19.132	-15.969	3.759	2.000	1	I5_White_R
21.406	-13.205	4.695	2.000	1	I6_White_R
23.679	-10.442	5.630	2.000	1	I7_White_R
25.953	-7.678	6.566	19.000	1	I8_Putamen_R
28.226	-4.915	7.502	2.000	1	I9_White_R
30.500	-2.151	8.438	2.000	1	I10_White_R
32.774	0.613	9.373	2.000	1	I11_White_R
35.047	3.376	10.309	20.000	1	I12_Precentral_R
37.321	6.140	11.245	20.000	1	I13_Precentral_R
39.594	8.904	12.181	2.000	1	I14_White_R
41.868	11.667	13.117	2.000	1	I15_White_R
44.141	14.431	14.052	2.000	1	I16_White_R
5.988	-3.067	34.291	2.000	1	J1_White_R
6.807	-1.890	37.986	21.000	1	J2_Posterior_cingulate_R
7.625	-0.713	41.681	17.000	1	J3_Superior_frontal_R
8.443	0.463	45.376	2.000	1	J4_White_R
9.261	1.640	49.072	2.000	1	J5_White_R
10.080	2.817	52.767	17.000	1	J6_Superior_frontal_R
10.898	3.994	56.462	2.000	1	J7_White_R
11.716	5.171	60.157	2.000	1	J8_White_R
12.535	6.348	63.853	2.000	1	J9_White_R
13.353	7.525	67.548	17.000	1	J10_Superior_frontal_R
