27.176	-7.623	-21.364	1.000	1.000000e-01
30.437	-6.800	-19.899	2.000	1.000000e-01
33.697	-5.977	-18.434	3.000	1.000000e-01
36.958	-5.154	-16.970	3.000	1.000000e-01
40.219	-4.332	-15.505	4.000	1.000000e-01
43.479	-3.509	-14.040	4.000	1.000000e-01
46.740	-2.686	-12.575	5.000	1.000000e-01
50.001	-1.863	-11.110	3.000	1.000000e-01
29.545	-16.577	-13.362	1.000	1.000000e-01
32.079	-13.706	-13.300	3.000	1.000000e-01
34.614	-10.834	-13.238	3.000	1.000000e-01
37.149	-7.963	-13.176	3.000	1.000000e-01
39.684	-5.091	-13.114	4.000	1.000000e-01
42.219	-2.219	-13.051	4.000	1.000000e-01
44.754	0.652	-12.989	5.000	1.000000e-01
47.289	3.524	-12.927	5.000	1.000000e-01
25.597	-38.287	-1.834	1.000	1.000000e-01
29.044	-37.136	-2.463	1.000	1.000000e-01
32.492	-35.984	-3.092	1.000	1.000000e-01
35.939	-34.833	-3.721	3.000	1.000000e-01
39.387	-33.681	-4.350	3.000	1.000000e-01
42.834	-32.530	-4.979	3.000	1.000000e-01
46.281	-31.378	-5.608	3.000	1.000000e-01
49.729	-30.227	-6.237	6.000	1.000000e-01
53.176	-29.075	-6.867	6.000	1.000000e-01
56.624	-27.924	-7.496	6.000	1.000000e-01
60.071	-26.772	-8.125	6.000	1.000000e-01
63.519	-25.621	-8.754	6.000	1.000000e-01
33.275	5.523	-40.311	7.000	1.000000e-01
36.566	5.425	-38.745	8.000	1.000000e-01
39.857	5.326	-37.179	8.000	1.000000e-01
43.148	5.228	-35.613	6.000	1.000000e-01
46.439	5.129	-34.047	6.000	1.000000e-01
49.730	5.031	-32.481	6.000	1.000000e-01
53.021	4.932	-30.915	6.000	1.000000e-01
56.312	4.834	-29.349	6.000	1.000000e-01
27.826	-33.669	-18.441	7.000	1.000000e-01
30.604	-35.879	-17.475	7.000	1.000000e-01
33.382	-38.089	-16.509	7.000	1.000000e-01
36.160	-40.299	-15.543	3.000	1.000000e-01
38.939	-42.509	-14.576	3.000	1.000000e-01
41.717	-44.719	-13.610	7.000	1.000000e-01
44.495	-46.929	-12.644	7.000	1.000000e-01
47.273	-49.139	-11.677	8.000	1.000000e-01
50.051	-51.349	-10.711	3.000	1.000000e-01
52.830	-53.559	-9.745	3.000	1.000000e-01
9.462	-25.184	6.397	9.000	1.000000e-01
12.832	-24.066	7.285	9.000	1.000000e-01
16.202	-22.948	8.174	9.000	1.000000e-01
19.573	-21.829	9.062	9.000	1.000000e-01
22.943	-20.711	9.950	9.000	1.000000e-01
26.313	-19.593	10.838	3.000	1.000000e-01
29.684	-18.475	11.727	3.000	1.000000e-01
33.054	-17.357	12.615	3.000	1.000000e-01
36.424	-16.238	13.503	4.000	1.000000e-01
39.795	-15.120	14.392	4.000	1.000000e-01
43.165	-14.002	15.280	10.000	1.000000e-01
46.535	-12.884	16.168	10.000	1.000000e-01
2.020	37.936	1.675	11.000	1.000000e-01
5.436	37.545	2.782	11.000	1.000000e-01
8.853	37.154	3.889	3.000	1.000000e-01
12.269	36.763	4.996	3.000	1.000000e-01
15.686	36.372	6.103	3.000	1.000000e-01
19.102	35.981	7.210	3.000	1.000000e-01
22.519	35.590	8.317	3.000	1.000000e-01
25.935	35.199	9.424	3.000	1.000000e-01
29.352	34.808	10.531	3.000	1.000000e-01
32.768	34.417	11.638	3.000	1.000000e-01
36.185	34.026	12.745	3.000	1.000000e-01
39.601	33.635	13.852	3.000	1.000000e-01
43.017	33.244	14.959	3.000	1.000000e-01
46.434	32.853	16.066	12.000	1.000000e-01
49.850	32.462	17.173	12.000	1.000000e-01
53.267	32.071	18.279	12.000	1.000000e-01
3.315	25.132	-32.947	13.000	1.000000e-01
6.261	26.480	-31.110	14.000	1.000000e-01
9.207	27.829	-29.273	14.000	1.000000e-01
12.152	29.177	-27.437	14.000	1.000000e-01
15.098	30.526	-25.600	15.000	1.000000e-01
18.044	31.874	-23.763	15.000	1.000000e-01
20.990	33.223	-21.927	15.000	1.000000e-01
23.936	34.571	-20.090	15.000	1.000000e-01
26.881	35.920	-18.253	15.000	1.000000e-01
29.827	37.268	-16.417	15.000	1.000000e-01
32.773	38.617	-14.580	16.000	1.000000e-01
35.719	39.965	-12.743	3.000	1.000000e-01
38.665	41.314	-10.907	3.000	1.000000e-01
41.610	42.662	-9.070	3.000	1.000000e-01
44.556	44.011	-7.233	12.000	1.000000e-01
47.502	45.359	-5.397	12.000	1.000000e-01
1.682	-43.538	16.119	17.000	1.000000e-01
4.954	-44.868	16.864	17.000	1.000000e-01
8.227	-46.198	17.609	3.000	1.000000e-01
11.499	-47.528	18.353	3.000	1.000000e-01
14.772	-48.857	19.098	18.000	1.000000e-01
18.045	-50.187	19.843	18.000	1.000000e-01
21.317	-51.517	20.588	18.000	1.000000e-01
24.590	-52.846	21.332	3.000	1.000000e-01
27.863	-54.176	22.077	3.000	1.000000e-01
31.135	-55.506	22.822	3.000	1.000000e-01
34.408	-56.836	23.566	3.000	1.000000e-01
37.680	-58.165	24.311	3.000	1.000000e-01
40.953	-59.495	25.056	19.000	1.000000e-01
44.226	-60.825	25.801	19.000	1.000000e-01
47.498	-62.154	26.545	19.000	1.000000e-01
50.771	-63.484	27.290	19.000	1.000000e-01
-1.249	-43.076	23.241	20.000	1.000000e-01
2.323	-42.770	23.644	17.000	1.000000e-01
5.895	-42.464	24.046	17.000	1.000000e-01
9.467	-42.158	24.449	3.000	1.000000e-01
13.039	-41.852	24.851	3.000	1.000000e-01
16.611	-41.546	25.254	3.000	1.000000e-01
20.183	-41.240	25.656	3.000	1.000000e-01
23.755	-40.934	26.059	3.000	1.000000e-01
27.327	-40.628	26.461	3.000	1.000000e-01
30.899	-40.322	26.864	3.000	1.000000e-01
34.471	-40.016	27.266	3.000	1.000000e-01
38.044	-39.710	27.669	3.000	1.000000e-01
41.616	-39.404	28.071	3.000	1.000000e-01
45.188	-39.097	28.474	3.000	1.000000e-01
48.760	-38.791	28.876	3.000	1.000000e-01
52.332	-38.485	29.279	3.000	1.000000e-01
4.609	-47.229	27.495	18.000	1.000000e-01
8.137	-47.584	28.068	18.000	1.000000e-01
11.665	-47.940	28.642	3.000	1.000000e-01
15.193	-48.296	29.215	3.000	1.000000e-01
18.722	-48.652	29.788	3.000	1.000000e-01
22.250	-49.008	30.361	3.000	1.000000e-01
25.778	-49.364	30.934	3.000	1.000000e-01
29.306	-49.720	31.507	3.000	1.000000e-01
32.834	-50.076	32.080	3.000	1.000000e-01
36.362	-50.432	32.654	3.000	1.000000e-01
39.890	-50.787	33.227	3.000	1.000000e-01
43.418	-51.143	33.800	19.000	1.000000e-01
46.946	-51.499	34.373	19.000	1.000000e-01
50.474	-51.855	34.946	19.000	1.000000e-01
54.002	-52.211	35.519	3.000	1.000000e-01
57.530	-52.567	36.093	19.000	1.000000e-01
