27.176	-7.623	-21.364	3	0.100	Amicro1_Hippocampus_R
30.437	-6.800	-19.899	2	0.100	Amicro2_Amygdala_R
33.697	-5.977	-18.434	1	0.100	Amicro3_White_R
36.958	-5.154	-16.970	1	0.100	Amicro4_White_R
40.219	-4.332	-15.505	1	0.100	Amicro5_Insula_R
43.479	-3.509	-14.040	1	0.100	Amicro6_Insula_R
46.740	-2.686	-12.575	1	0.100	Amicro7_Superior_temporal_R
50.001	-1.863	-11.110	1	0.100	Amicro8_White_R
29.545	-16.577	-13.362	3	0.100	Bmicro1_Hippocampus_R
32.079	-13.706	-13.300	1	0.100	Bmicro2_White_R
34.614	-10.834	-13.238	1	0.100	Bmicro3_White_R
37.149	-7.963	-13.176	1	0.100	Bmicro4_White_R
39.684	-5.091	-13.114	1	0.100	Bmicro5_Insula_R
42.219	-2.219	-13.051	1	0.100	Bmicro6_Insula_R
44.754	0.652	-12.989	1	0.100	Bmicro7_Superior_temporal_R
47.289	3.524	-12.927	1	0.100	Bmicro8_Superior_temporal_R
25.597	-38.287	-1.834	3	0.100	C1_Hippocampus_R
29.044	-37.136	-2.463	3	0.100	C2_Hippocampus_R
32.492	-35.984	-3.092	3	0.100	C3_Hippocampus_R
35.939	-34.833	-3.721	1	0.100	C4_White_R
39.387	-33.681	-4.350	1	0.100	C5_White_R
42.834	-32.530	-4.979	1	0.100	C6_White_R
46.281	-31.378	-5.608	1	0.100	C7_White_R
49.729	-30.227	-6.237	1	0.100	C8_Middle_temporal_R
53.176	-29.075	-6.867	1	0.100	C9_Middle_temporal_R
56.624	-27.924	-7.496	1	0.100	C10_Middle_temporal_R
60.071	-26.772	-8.125	1	0.100	C11_Middle_temporal_R
63.519	-25.621	-8.754	1	0.100	C12_Middle_temporal_R
33.275	5.523	-40.311	4	0.100	D1_Fusiform_R
36.566	5.425	-38.745	1	0.100	D2_Inferior_temporal_R
39.857	5.326	-37.179	1	0.100	D3_Inferior_temporal_R
43.148	5.228	-35.613	1	0.100	D4_Middle_temporal_R
46.439	5.129	-34.047	1	0.100	D5_Middle_temporal_R
49.730	5.031	-32.481	1	0.100	D6_Middle_temporal_R
53.021	4.932	-30.915	1	0.100	D7_Middle_temporal_R
56.312	4.834	-29.349	1	0.100	D8_Middle_temporal_R
27.826	-33.669	-18.441	4	0.100	E1_Fusiform_R
30.604	-35.879	-17.475	4	0.100	E2_Fusiform_R
33.382	-38.089	-16.509	4	0.100	E3_Fusiform_R
36.160	-40.299	-15.543	1	0.100	E4_White_R
38.939	-42.509	-14.576	1	0.100	E5_White_R
41.717	-44.719	-13.610	4	0.100	E6_Fusiform_R
44.495	-46.929	-12.644	4	0.100	E7_Fusiform_R
47.273	-49.139	-11.677	1	0.100	E8_Inferior_temporal_R
50.051	-51.349	-10.711	1	0.100	E9_White_R
52.830	-53.559	-9.745	1	0.100	E10_White_R
9.462	-25.184	6.397	1	0.100	F1_Thalamus_R
12.832	-24.066	7.285	1	0.100	F2_Thalamus_R
16.202	-22.948	8.174	1	0.100	F3_Thalamus_R
19.573	-21.829	9.062	1	0.100	F4_Thalamus_R
22.943	-20.711	9.950	1	0.100	F5_Thalamus_R
26.313	-19.593	10.838	1	0.100	F6_White_R
29.684	-18.475	11.727	1	0.100	F7_White_R
33.054	-17.357	12.615	1	0.100	F8_White_R
36.424	-16.238	13.503	1	0.100	F9_Insula_R
39.795	-15.120	14.392	1	0.100	F10_Insula_R
43.165	-14.002	15.280	1	0.100	F11_Postcentral_R
46.535	-12.884	16.168	1	0.100	F12_Postcentral_R
2.020	37.936	1.675	1	0.100	G1_Rostral_ant_cing_R
5.436	37.545	2.782	1	0.100	G2_Rostral_ant_cing_R
8.853	37.154	3.889	1	0.100	G3_White_R
12.269	36.763	4.996	1	0.100	G4_White_R
15.686	36.372	6.103	1	0.100	G5_White_R
19.102	35.981	7.210	1	0.100	G6_White_R
22.519	35.590	8.317	1	0.100	G7_White_R
25.935	35.199	9.424	1	0.100	G8_White_R
29.352	34.808	10.531	1	0.100	G9_White_R
32.768	34.417	11.638	1	0.100	G10_White_R
36.185	34.026	12.745	1	0.100	G11_White_R
39.601	33.635	13.852	1	0.100	G12_White_R
43.017	33.244	14.959	1	0.100	G13_White_R
46.434	32.853	16.066	1	0.100	G14_Pars_triangularis_R
49.850	32.462	17.173	1	0.100	G15_Pars_triangularis_R
53.267	32.071	18.279	1	0.100	G16_Pars_triangularis_R
3.315	25.132	-32.947	1	0.100	H1_N_A
6.261	26.480	-31.110	1	0.100	H2_Medial_orbitofrontal_R
9.207	27.829	-29.273	1	0.100	H3_Medial_orbitofrontal_R
12.152	29.177	-27.437	1	0.100	H4_Medial_orbitofrontal_R
15.098	30.526	-25.600	1	0.100	H5_Lateral_orbitofrontal_R
18.044	31.874	-23.763	1	0.100	H6_Lateral_orbitofrontal_R
20.990	33.223	-21.927	1	0.100	H7_Lateral_orbitofrontal_R
23.936	34.571	-20.090	1	0.100	H8_Lateral_orbitofrontal_R
26.881	35.920	-18.253	1	0.100	H9_Lateral_orbitofrontal_R
29.827	37.268	-16.417	1	0.100	H10_Lateral_orbitofrontal_R
32.773	38.617	-14.580	1	0.100	H11_Pars_orbitalis_R
35.719	39.965	-12.743	1	0.100	H12_White_R
38.665	41.314	-10.907	1	0.100	H13_White_R
41.610	42.662	-9.070	1	0.100	H14_White_R
44.556	44.011	-7.233	1	0.100	H15_Pars_triangularis_R
47.502	45.359	-5.397	1	0.100	H16_Pars_triangularis_R
1.682	-43.538	16.119	1	0.100	I1_Isthmus_cingulate_R
4.954	-44.868	16.864	1	0.100	I2_Isthmus_cingulate_R
8.227	-46.198	17.609	1	0.100	I3_White_R
11.499	-47.528	18.353	1	0.100	I4_White_R
14.772	-48.857	19.098	1	0.100	I5_Precuneus_R
18.045	-50.187	19.843	1	0.100	I6_Precuneus_R
21.317	-51.517	20.588	1	0.100	I7_Precuneus_R
24.590	-52.846	21.332	1	0.100	I8_White_R
27.863	-54.176	22.077	1	0.100	I9_White_R
31.135	-55.506	22.822	1	0.100	I10_White_R
34.408	-56.836	23.566	1	0.100	I11_White_R
37.680	-58.165	24.311	1	0.100	I12_White_R
40.953	-59.495	25.056	1	0.100	I13_Inferior_parietal_R
44.226	-60.825	25.801	1	0.100	I14_Inferior_parietal_R
47.498	-62.154	26.545	1	0.100	I15_Inferior_parietal_R
50.771	-63.484	27.290	1	0.100	I16_Inferior_parietal_R
-1.249	-43.076	23.241	1	0.100	J1_Isthmus_cingulate_L
2.323	-42.770	23.644	1	0.100	J2_Isthmus_cingulate_R
5.895	-42.464	24.046	1	0.100	J3_Isthmus_cingulate_R
9.467	-42.158	24.449	1	0.100	J4_White_R
13.039	-41.852	24.851	1	0.100	J5_White_R
16.611	-41.546	25.254	1	0.100	J6_White_R
20.183	-41.240	25.656	1	0.100	J7_White_R
23.755	-40.934	26.059	1	0.100	J8_White_R
27.327	-40.628	26.461	1	0.100	J9_White_R
30.899	-40.322	26.864	1	0.100	J10_White_R
34.471	-40.016	27.266	1	0.100	J11_White_R
38.044	-39.710	27.669	1	0.100	J12_White_R
41.616	-39.404	28.071	1	0.100	J13_White_R
45.188	-39.097	28.474	1	0.100	J14_White_R
48.760	-38.791	28.876	1	0.100	J15_White_R
52.332	-38.485	29.279	1	0.100	J16_White_R
4.609	-47.229	27.495	1	0.100	K1_Precuneus_R
8.137	-47.584	28.068	1	0.100	K2_Precuneus_R
11.665	-47.940	28.642	1	0.100	K3_White_R
15.193	-48.296	29.215	1	0.100	K4_White_R
18.722	-48.652	29.788	1	0.100	K5_White_R
22.250	-49.008	30.361	1	0.100	K6_White_R
25.778	-49.364	30.934	1	0.100	K7_White_R
29.306	-49.720	31.507	1	0.100	K8_White_R
32.834	-50.076	32.080	1	0.100	K9_White_R
36.362	-50.432	32.654	1	0.100	K10_White_R
39.890	-50.787	33.227	1	0.100	K11_White_R
43.418	-51.143	33.800	1	0.100	K12_Inferior_parietal_R
46.946	-51.499	34.373	1	0.100	K13_Inferior_parietal_R
50.474	-51.855	34.946	1	0.100	K14_Inferior_parietal_R
54.002	-52.211	35.519	1	0.100	K15_White_R
57.530	-52.567	36.093	1	0.100	K16_Inferior_parietal_R
