27.176	-7.623	-21.364	1.000	1	Sub001_Amicro1_Hippocampus_R
30.437	-6.800	-19.899	2.000	1	Sub001_Amicro2_Amygdala_R
33.697	-5.977	-18.434	3.000	1	Sub001_Amicro3_White_R
36.958	-5.154	-16.970	3.000	1	Sub001_Amicro4_White_R
40.219	-4.332	-15.505	4.000	1	Sub001_Amicro5_Insula_R
43.479	-3.509	-14.040	4.000	1	Sub001_Amicro6_Insula_R
46.740	-2.686	-12.575	5.000	1	Sub001_Amicro7_Superior_temporal_R
50.001	-1.863	-11.110	3.000	1	Sub001_Amicro8_White_R
29.545	-16.577	-13.362	1.000	1	Sub001_Bmicro1_Hippocampus_R
32.079	-13.706	-13.300	3.000	1	Sub001_Bmicro2_White_R
34.614	-10.834	-13.238	3.000	1	Sub001_Bmicro3_White_R
37.149	-7.963	-13.176	3.000	1	Sub001_Bmicro4_White_R
39.684	-5.091	-13.114	4.000	1	Sub001_Bmicro5_Insula_R
42.219	-2.219	-13.051	4.000	1	Sub001_Bmicro6_Insula_R
44.754	0.652	-12.989	5.000	1	Sub001_Bmicro7_Superior_temporal_R
47.289	3.524	-12.927	5.000	1	Sub001_Bmicro8_Superior_temporal_R
25.597	-38.287	-1.834	1.000	1	Sub001_C1_Hippocampus_R
29.044	-37.136	-2.463	1.000	1	Sub001_C2_Hippocampus_R
32.492	-35.984	-3.092	1.000	1	Sub001_C3_Hippocampus_R
35.939	-34.833	-3.721	3.000	1	Sub001_C4_White_R
39.387	-33.681	-4.350	3.000	1	Sub001_C5_White_R
42.834	-32.530	-4.979	3.000	1	Sub001_C6_White_R
46.281	-31.378	-5.608	3.000	1	Sub001_C7_White_R
49.729	-30.227	-6.237	6.000	1	Sub001_C8_Middle_temporal_R
53.176	-29.075	-6.867	6.000	1	Sub001_C9_Middle_temporal_R
56.624	-27.924	-7.496	6.000	1	Sub001_C10_Middle_temporal_R
60.071	-26.772	-8.125	6.000	1	Sub001_C11_Middle_temporal_R
63.519	-25.621	-8.754	6.000	1	Sub001_C12_Middle_temporal_R
33.275	5.523	-40.311	7.000	1	Sub001_D1_Fusiform_R
36.566	5.425	-38.745	8.000	1	Sub001_D2_Inferior_temporal_R
39.857	5.326	-37.179	8.000	1	Sub001_D3_Inferior_temporal_R
43.148	5.228	-35.613	6.000	1	Sub001_D4_Middle_temporal_R
46.439	5.129	-34.047	6.000	1	Sub001_D5_Middle_temporal_R
49.730	5.031	-32.481	6.000	1	Sub001_D6_Middle_temporal_R
53.021	4.932	-30.915	6.000	1	Sub001_D7_Middle_temporal_R
56.312	4.834	-29.349	6.000	1	Sub001_D8_Middle_temporal_R
27.826	-33.669	-18.441	7.000	1	Sub001_E1_Fusiform_R
30.604	-35.879	-17.475	7.000	1	Sub001_E2_Fusiform_R
33.382	-38.089	-16.509	7.000	1	Sub001_E3_Fusiform_R
36.160	-40.299	-15.543	3.000	1	Sub001_E4_White_R
38.939	-42.509	-14.576	3.000	1	Sub001_E5_White_R
41.717	-44.719	-13.610	7.000	1	Sub001_E6_Fusiform_R
44.495	-46.929	-12.644	7.000	1	Sub001_E7_Fusiform_R
47.273	-49.139	-11.677	8.000	1	Sub001_E8_Inferior_temporal_R
50.051	-51.349	-10.711	3.000	1	Sub001_E9_White_R
52.830	-53.559	-9.745	3.000	1	Sub001_E10_White_R
9.462	-25.184	6.397	9.000	1	Sub001_F1_Thalamus_R
12.832	-24.066	7.285	9.000	1	Sub001_F2_Thalamus_R
16.202	-22.948	8.174	9.000	1	Sub001_F3_Thalamus_R
19.573	-21.829	9.062	9.000	1	Sub001_F4_Thalamus_R
22.943	-20.711	9.950	9.000	1	Sub001_F5_Thalamus_R
26.313	-19.593	10.838	3.000	1	Sub001_F6_White_R
29.684	-18.475	11.727	3.000	1	Sub001_F7_White_R
33.054	-17.357	12.615	3.000	1	Sub001_F8_White_R
36.424	-16.238	13.503	4.000	1	Sub001_F9_Insula_R
39.795	-15.120	14.392	4.000	1	Sub001_F10_Insula_R
43.165	-14.002	15.280	10.000	1	Sub001_F11_Postcentral_R
46.535	-12.884	16.168	10.000	1	Sub001_F12_Postcentral_R
2.020	37.936	1.675	11.000	1	Sub001_G1_Rostral_ant_cing_R
5.436	37.545	2.782	11.000	1	Sub001_G2_Rostral_ant_cing_R
8.853	37.154	3.889	3.000	1	Sub001_G3_White_R
12.269	36.763	4.996	3.000	1	Sub001_G4_White_R
15.686	36.372	6.103	3.000	1	Sub001_G5_White_R
19.102	35.981	7.210	3.000	1	Sub001_G6_White_R
22.519	35.590	8.317	3.000	1	Sub001_G7_White_R
25.935	35.199	9.424	3.000	1	Sub001_G8_White_R
29.352	34.808	10.531	3.000	1	Sub001_G9_White_R
32.768	34.417	11.638	3.000	1	Sub001_G10_White_R
36.185	34.026	12.745	3.000	1	Sub001_G11_White_R
39.601	33.635	13.852	3.000	1	Sub001_G12_White_R
43.017	33.244	14.959	3.000	1	Sub001_G13_White_R
46.434	32.853	16.066	12.000	1	Sub001_G14_Pars_triangularis_R
49.850	32.462	17.173	12.000	1	Sub001_G15_Pars_triangularis_R
53.267	32.071	18.279	12.000	1	Sub001_G16_Pars_triangularis_R
3.315	25.132	-32.947	13.000	1	Sub001_H1_N_A
6.261	26.480	-31.110	14.000	1	Sub001_H2_Medial_orbitofrontal_R
9.207	27.829	-29.273	14.000	1	Sub001_H3_Medial_orbitofrontal_R
12.152	29.177	-27.437	14.000	1	Sub001_H4_Medial_orbitofrontal_R
15.098	30.526	-25.600	15.000	1	Sub001_H5_Lateral_orbitofrontal_R
18.044	31.874	-23.763	15.000	1	Sub001_H6_Lateral_orbitofrontal_R
20.990	33.223	-21.927	15.000	1	Sub001_H7_Lateral_orbitofrontal_R
23.936	34.571	-20.090	15.000	1	Sub001_H8_Lateral_orbitofrontal_R
26.881	35.920	-18.253	15.000	1	Sub001_H9_Lateral_orbitofrontal_R
29.827	37.268	-16.417	15.000	1	Sub001_H10_Lateral_orbitofrontal_R
32.773	38.617	-14.580	16.000	1	Sub001_H11_Pars_orbitalis_R
35.719	39.965	-12.743	3.000	1	Sub001_H12_White_R
38.665	41.314	-10.907	3.000	1	Sub001_H13_White_R
41.610	42.662	-9.070	3.000	1	Sub001_H14_White_R
44.556	44.011	-7.233	12.000	1	Sub001_H15_Pars_triangularis_R
47.502	45.359	-5.397	12.000	1	Sub001_H16_Pars_triangularis_R
1.682	-43.538	16.119	17.000	1	Sub001_I1_Isthmus_cingulate_R
4.954	-44.868	16.864	17.000	1	Sub001_I2_Isthmus_cingulate_R
8.227	-46.198	17.609	3.000	1	Sub001_I3_White_R
11.499	-47.528	18.353	3.000	1	Sub001_I4_White_R
14.772	-48.857	19.098	18.000	1	Sub001_I5_Precuneus_R
18.045	-50.187	19.843	18.000	1	Sub001_I6_Precuneus_R
21.317	-51.517	20.588	18.000	1	Sub001_I7_Precuneus_R
24.590	-52.846	21.332	3.000	1	Sub001_I8_White_R
27.863	-54.176	22.077	3.000	1	Sub001_I9_White_R
31.135	-55.506	22.822	3.000	1	Sub001_I10_White_R
34.408	-56.836	23.566	3.000	1	Sub001_I11_White_R
37.680	-58.165	24.311	3.000	1	Sub001_I12_White_R
40.953	-59.495	25.056	19.000	1	Sub001_I13_Inferior_parietal_R
44.226	-60.825	25.801	19.000	1	Sub001_I14_Inferior_parietal_R
47.498	-62.154	26.545	19.000	1	Sub001_I15_Inferior_parietal_R
50.771	-63.484	27.290	19.000	1	Sub001_I16_Inferior_parietal_R
-1.249	-43.076	23.241	20.000	1	Sub001_J1_Isthmus_cingulate_L
2.323	-42.770	23.644	17.000	1	Sub001_J2_Isthmus_cingulate_R
5.895	-42.464	24.046	17.000	1	Sub001_J3_Isthmus_cingulate_R
9.467	-42.158	24.449	3.000	1	Sub001_J4_White_R
13.039	-41.852	24.851	3.000	1	Sub001_J5_White_R
16.611	-41.546	25.254	3.000	1	Sub001_J6_White_R
20.183	-41.240	25.656	3.000	1	Sub001_J7_White_R
23.755	-40.934	26.059	3.000	1	Sub001_J8_White_R
27.327	-40.628	26.461	3.000	1	Sub001_J9_White_R
30.899	-40.322	26.864	3.000	1	Sub001_J10_White_R
34.471	-40.016	27.266	3.000	1	Sub001_J11_White_R
38.044	-39.710	27.669	3.000	1	Sub001_J12_White_R
41.616	-39.404	28.071	3.000	1	Sub001_J13_White_R
45.188	-39.097	28.474	3.000	1	Sub001_J14_White_R
48.760	-38.791	28.876	3.000	1	Sub001_J15_White_R
52.332	-38.485	29.279	3.000	1	Sub001_J16_White_R
4.609	-47.229	27.495	18.000	1	Sub001_K1_Precuneus_R
8.137	-47.584	28.068	18.000	1	Sub001_K2_Precuneus_R
11.665	-47.940	28.642	3.000	1	Sub001_K3_White_R
15.193	-48.296	29.215	3.000	1	Sub001_K4_White_R
18.722	-48.652	29.788	3.000	1	Sub001_K5_White_R
22.250	-49.008	30.361	3.000	1	Sub001_K6_White_R
25.778	-49.364	30.934	3.000	1	Sub001_K7_White_R
29.306	-49.720	31.507	3.000	1	Sub001_K8_White_R
32.834	-50.076	32.080	3.000	1	Sub001_K9_White_R
36.362	-50.432	32.654	3.000	1	Sub001_K10_White_R
39.890	-50.787	33.227	3.000	1	Sub001_K11_White_R
43.418	-51.143	33.800	19.000	1	Sub001_K12_Inferior_parietal_R
46.946	-51.499	34.373	19.000	1	Sub001_K13_Inferior_parietal_R
50.474	-51.855	34.946	19.000	1	Sub001_K14_Inferior_parietal_R
54.002	-52.211	35.519	3.000	1	Sub001_K15_White_R
57.530	-52.567	36.093	19.000	1	Sub001_K16_Inferior_parietal_R
16.658	-6.486	-26.751	2.000	1	Sub004_A1_Amygdala_R
20.260	-5.796	-26.750	2.000	1	Sub004_A2_Amygdala_R
23.861	-5.106	-26.749	2.000	1	Sub004_A3_Amygdala_R
27.463	-4.416	-26.748	2.000	1	Sub004_A4_Amygdala_R
31.065	-3.726	-26.747	2.000	1	Sub004_A5_Amygdala_R
34.667	-3.036	-26.746	3.000	1	Sub004_A6_White_R
38.268	-2.346	-26.745	3.000	1	Sub004_A7_White_R
41.870	-1.656	-26.744	3.000	1	Sub004_A8_White_R
45.472	-0.966	-26.743	3.000	1	Sub004_A9_White_R
49.074	-0.276	-26.743	6.000	1	Sub004_A10_Middle_temporal_R
52.676	0.414	-26.742	6.000	1	Sub004_A11_Middle_temporal_R
56.277	1.104	-26.741	6.000	1	Sub004_A12_Middle_temporal_R
18.703	-13.046	-22.641	1.000	1	Sub004_B1_Hippocampus_R
22.322	-12.668	-22.481	1.000	1	Sub004_B2_Hippocampus_R
25.942	-12.290	-22.321	1.000	1	Sub004_B3_Hippocampus_R
29.561	-11.912	-22.160	1.000	1	Sub004_B4_Hippocampus_R
33.181	-11.534	-22.000	21.000	1	Sub004_B5_Ventricle_inf-lat_R
36.800	-11.156	-21.840	3.000	1	Sub004_B6_White_R
40.420	-10.778	-21.680	3.000	1	Sub004_B7_White_R
44.039	-10.400	-21.519	3.000	1	Sub004_B8_White_R
47.659	-10.021	-21.359	6.000	1	Sub004_B9_Middle_temporal_R
51.278	-9.643	-21.199	3.000	1	Sub004_B10_White_R
54.898	-9.265	-21.039	3.000	1	Sub004_B11_White_R
58.517	-8.887	-20.878	3.000	1	Sub004_B12_White_R
20.714	-25.316	-14.659	3.000	1	Sub004_C1_White_R
24.083	-26.110	-13.745	1.000	1	Sub004_C2_Hippocampus_R
27.452	-26.905	-12.831	1.000	1	Sub004_C3_Hippocampus_R
30.821	-27.699	-11.917	1.000	1	Sub004_C4_Hippocampus_R
34.190	-28.494	-11.003	3.000	1	Sub004_C5_White_R
37.559	-29.288	-10.089	3.000	1	Sub004_C6_White_R
40.928	-30.083	-9.175	3.000	1	Sub004_C7_White_R
44.297	-30.877	-8.261	3.000	1	Sub004_C8_White_R
47.666	-31.672	-7.347	6.000	1	Sub004_C9_Middle_temporal_R
51.035	-32.466	-6.433	6.000	1	Sub004_C10_Middle_temporal_R
54.403	-33.261	-5.519	22.000	1	Sub004_C11_Banks_sts_R
57.772	-34.055	-4.605	22.000	1	Sub004_C12_Banks_sts_R
61.141	-34.850	-3.691	22.000	1	Sub004_C13_Banks_sts_R
64.510	-35.644	-2.777	6.000	1	Sub004_C14_Middle_temporal_R
67.879	-36.439	-1.863	6.000	1	Sub004_C15_Middle_temporal_R
71.248	-37.233	-0.948	6.000	1	Sub004_C16_Middle_temporal_R
28.291	-19.982	-31.495	7.000	1	Sub004_D1_Fusiform_R
30.787	-22.184	-30.218	7.000	1	Sub004_D2_Fusiform_R
33.282	-24.386	-28.940	7.000	1	Sub004_D3_Fusiform_R
35.778	-26.588	-27.663	7.000	1	Sub004_D4_Fusiform_R
38.274	-28.790	-26.385	8.000	1	Sub004_D5_Inferior_temporal_R
40.769	-30.992	-25.108	8.000	1	Sub004_D6_Inferior_temporal_R
43.265	-33.193	-23.830	8.000	1	Sub004_D7_Inferior_temporal_R
45.760	-35.395	-22.553	8.000	1	Sub004_D8_Inferior_temporal_R
48.256	-37.597	-21.276	8.000	1	Sub004_D9_Inferior_temporal_R
50.751	-39.799	-19.998	3.000	1	Sub004_D10_White_R
53.247	-42.001	-18.721	8.000	1	Sub004_D11_Inferior_temporal_R
55.742	-44.203	-17.443	8.000	1	Sub004_D12_Inferior_temporal_R
8.086	15.509	-23.005	14.000	1	Sub004_E1_Medial_orbitofrontal_R
11.047	17.341	-21.734	15.000	1	Sub004_E2_Lateral_orbitofrontal_R
14.009	19.173	-20.463	15.000	1	Sub004_E3_Lateral_orbitofrontal_R
16.971	21.005	-19.191	15.000	1	Sub004_E4_Lateral_orbitofrontal_R
19.932	22.837	-17.920	15.000	1	Sub004_E5_Lateral_orbitofrontal_R
22.894	24.669	-16.649	15.000	1	Sub004_E6_Lateral_orbitofrontal_R
25.856	26.502	-15.378	3.000	1	Sub004_E7_White_R
28.817	28.334	-14.106	15.000	1	Sub004_E8_Lateral_orbitofrontal_R
31.779	30.166	-12.835	15.000	1	Sub004_E9_Lateral_orbitofrontal_R
34.741	31.998	-11.564	3.000	1	Sub004_E10_White_R
37.702	33.830	-10.292	15.000	1	Sub004_E11_Lateral_orbitofrontal_R
40.664	35.662	-9.021	16.000	1	Sub004_E12_Pars_orbitalis_R
43.626	37.494	-7.750	16.000	1	Sub004_E13_Pars_orbitalis_R
46.587	39.326	-6.479	16.000	1	Sub004_E14_Pars_orbitalis_R
49.549	41.158	-5.207	12.000	1	Sub004_E15_Pars_triangularis_R
52.511	42.990	-3.936	12.000	1	Sub004_E16_Pars_triangularis_R
33.025	-12.538	-13.125	3.000	1	Sub004_F1_White_R
35.779	-12.804	-10.579	3.000	1	Sub004_F2_White_R
38.533	-13.070	-8.033	5.000	1	Sub004_F3_Superior_temporal_R
41.286	-13.336	-5.486	5.000	1	Sub004_F4_Superior_temporal_R
44.040	-13.602	-2.940	5.000	1	Sub004_F5_Superior_temporal_R
46.793	-13.868	-0.394	3.000	1	Sub004_F6_White_R
49.547	-14.135	2.152	5.000	1	Sub004_F7_Superior_temporal_R
52.301	-14.401	4.699	5.000	1	Sub004_F8_Superior_temporal_R
55.054	-14.667	7.245	5.000	1	Sub004_F9_Superior_temporal_R
57.808	-14.933	9.791	5.000	1	Sub004_F10_Superior_temporal_R
60.562	-15.199	12.338	23.000	1	Sub004_F11_Supramarginal_R
63.315	-15.465	14.884	23.000	1	Sub004_F12_Supramarginal_R
3.502	24.080	-6.192	11.000	1	Sub004_G1_Rostral_ant_cing_R
4.929	27.246	-5.024	11.000	1	Sub004_G2_Rostral_ant_cing_R
6.355	30.413	-3.856	3.000	1	Sub004_G3_White_R
7.782	33.580	-2.687	11.000	1	Sub004_G4_Rostral_ant_cing_R
9.208	36.746	-1.519	3.000	1	Sub004_G5_White_R
10.635	39.913	-0.351	3.000	1	Sub004_G6_White_R
12.061	43.079	0.817	14.000	1	Sub004_G7_Medial_orbitofrontal_R
13.487	46.246	1.985	14.000	1	Sub004_G8_Medial_orbitofrontal_R
14.914	49.412	3.153	3.000	1	Sub004_G9_White_R
16.340	52.579	4.321	3.000	1	Sub004_G10_White_R
17.767	55.745	5.489	3.000	1	Sub004_G11_White_R
19.193	58.912	6.657	24.000	1	Sub004_G12_Rostral_mid_front_R
4.162	39.592	5.275	11.000	1	Sub004_H1_Rostral_ant_cing_R
6.229	41.511	7.792	11.000	1	Sub004_H2_Rostral_ant_cing_R
8.295	43.429	10.308	3.000	1	Sub004_H3_White_R
10.362	45.348	12.825	25.000	1	Sub004_H4_Superior_frontal_R
12.428	47.266	15.341	25.000	1	Sub004_H5_Superior_frontal_R
14.494	49.185	17.858	3.000	1	Sub004_H6_White_R
16.561	51.103	20.374	3.000	1	Sub004_H7_White_R
18.627	53.022	22.891	3.000	1	Sub004_H8_White_R
20.694	54.940	25.407	24.000	1	Sub004_H9_Rostral_mid_front_R
22.760	56.858	27.924	24.000	1	Sub004_H10_Rostral_mid_front_R
10.038	-27.024	0.016	9.000	1	Sub004_I1_Thalamus_R
12.312	-24.260	0.951	9.000	1	Sub004_I2_Thalamus_R
14.585	-21.496	1.887	9.000	1	Sub004_I3_Thalamus_R
16.859	-18.733	2.823	9.000	1	Sub004_I4_Thalamus_R
19.132	-15.969	3.759	3.000	1	Sub004_I5_White_R
21.406	-13.205	4.695	3.000	1	Sub004_I6_White_R
23.679	-10.442	5.630	3.000	1	Sub004_I7_White_R
25.953	-7.678	6.566	26.000	1	Sub004_I8_Putamen_R
28.226	-4.915	7.502	3.000	1	Sub004_I9_White_R
30.500	-2.151	8.438	3.000	1	Sub004_I10_White_R
32.774	0.613	9.373	3.000	1	Sub004_I11_White_R
35.047	3.376	10.309	27.000	1	Sub004_I12_Precentral_R
37.321	6.140	11.245	27.000	1	Sub004_I13_Precentral_R
39.594	8.904	12.181	3.000	1	Sub004_I14_White_R
41.868	11.667	13.117	3.000	1	Sub004_I15_White_R
44.141	14.431	14.052	3.000	1	Sub004_I16_White_R
5.988	-3.067	34.291	3.000	1	Sub004_J1_White_R
6.807	-1.890	37.986	28.000	1	Sub004_J2_Posterior_cingulate_R
7.625	-0.713	41.681	25.000	1	Sub004_J3_Superior_frontal_R
8.443	0.463	45.376	3.000	1	Sub004_J4_White_R
9.261	1.640	49.072	3.000	1	Sub004_J5_White_R
10.080	2.817	52.767	25.000	1	Sub004_J6_Superior_frontal_R
10.898	3.994	56.462	3.000	1	Sub004_J7_White_R
11.716	5.171	60.157	3.000	1	Sub004_J8_White_R
12.535	6.348	63.853	3.000	1	Sub004_J9_White_R
13.353	7.525	67.548	25.000	1	Sub004_J10_Superior_frontal_R
16.968	-4.507	-19.903	2.000	1	Sub005_R-Amyg-MMa1_Amygdala_R
21.782	-3.925	-20.837	2.000	1	Sub005_R-Amyg-MMa2_Amygdala_R
26.595	-3.342	-21.771	2.000	1	Sub005_R-Amyg-MMa3_Amygdala_R
31.409	-2.759	-22.705	3.000	1	Sub005_R-Amyg-MMa4_White_R
36.222	-2.176	-23.640	3.000	1	Sub005_R-Amyg-MMa5_White_R
41.036	-1.593	-24.574	3.000	1	Sub005_R-Amyg-MMa6_White_R
28.744	-15.560	-19.397	1.000	1	Sub005_R-hipp-BF1_Hippocampus_R
33.649	-15.735	-19.302	1.000	1	Sub005_R-hipp-BF2_Hippocampus_R
38.554	-15.910	-19.206	3.000	1	Sub005_R-hipp-BF3_White_R
43.460	-16.085	-19.111	3.000	1	Sub005_R-hipp-BF4_White_R
48.365	-16.260	-19.015	3.000	1	Sub005_R-hipp-BF5_White_R
53.270	-16.435	-18.919	3.000	1	Sub005_R-hipp-BF6_White_R
58.176	-16.610	-18.824	6.000	1	Sub005_R-hipp-BF7_Middle_temporal_R
63.081	-16.785	-18.728	6.000	1	Sub005_R-hipp-BF8_Middle_temporal_R
4.049	19.117	-13.226	14.000	1	Sub005_R-Cing-MMa1_Medial_orbitofrontal_R
4.586	23.014	-8.936	11.000	1	Sub005_R-Cing-MMa2_Rostral_ant_cing_R
5.123	26.912	-4.646	3.000	1	Sub005_R-Cing-MMa3_White_R
5.660	30.809	-0.357	3.000	1	Sub005_R-Cing-MMa4_White_R
6.197	34.707	3.933	3.000	1	Sub005_R-Cing-MMa5_White_R
6.734	38.605	8.223	25.000	1	Sub005_R-Cing-MMa6_Superior_frontal_R
6.637	-27.820	-0.048	29.000	1	Sub005_R-LH-MMc1_Brainstem
10.534	-25.089	2.328	9.000	1	Sub005_R-LH-MMc2_Thalamus_R
14.431	-22.357	4.703	9.000	1	Sub005_R-LH-MMc3_Thalamus_R
18.329	-19.626	7.079	9.000	1	Sub005_R-LH-MMc4_Thalamus_R
22.226	-16.894	9.455	3.000	1	Sub005_R-LH-MMc5_White_R
26.123	-14.163	11.831	3.000	1	Sub005_R-LH-MMc6_White_R
36.340	5.855	-7.327	4.000	1	Sub005_R-insul-Hua1_Insula_R
36.262	8.239	-3.988	4.000	1	Sub005_R-insul-Hua2_Insula_R
36.184	10.623	-0.649	4.000	1	Sub005_R-insul-Hua3_Insula_R
36.106	13.007	2.690	30.000	1	Sub005_R-insul-Hua4_Pars_opercularis_R
36.028	15.391	6.029	30.000	1	Sub005_R-insul-Hua5_Pars_opercularis_R
35.950	17.775	9.368	3.000	1	Sub005_R-insul-Hua6_White_R
35.872	20.158	12.707	3.000	1	Sub005_R-insul-Hua7_White_R
35.794	22.542	16.046	3.000	1	Sub005_R-insul-Hua8_White_R
35.717	24.926	19.385	3.000	1	Sub005_R-insul-Hua9_White_R
35.639	27.310	22.724	3.000	1	Sub005_R-insul-Hua10_White_R
35.561	29.694	26.064	24.000	1	Sub005_R-insul-Hua11_Rostral_mid_front_R
35.483	32.077	29.403	24.000	1	Sub005_R-insul-Hua12_Rostral_mid_front_R
35.405	34.461	32.742	24.000	1	Sub005_R-insul-Hua13_Rostral_mid_front_R
35.327	36.845	36.081	24.000	1	Sub005_R-insul-Hua14_Rostral_mid_front_R
35.249	39.229	39.420	24.000	1	Sub005_R-insul-Hua15_Rostral_mid_front_R
35.171	41.613	42.759	13.000	1	Sub005_R-insul-Hua16_N_A
9.350	26.314	-28.966	15.000	1	Sub005_R-OFC-Hua1_Lateral_orbitofrontal_R
12.496	27.454	-27.654	15.000	1	Sub005_R-OFC-Hua2_Lateral_orbitofrontal_R
15.643	28.594	-26.343	15.000	1	Sub005_R-OFC-Hua3_Lateral_orbitofrontal_R
18.790	29.734	-25.031	15.000	1	Sub005_R-OFC-Hua4_Lateral_orbitofrontal_R
21.936	30.874	-23.720	15.000	1	Sub005_R-OFC-Hua5_Lateral_orbitofrontal_R
25.083	32.014	-22.408	15.000	1	Sub005_R-OFC-Hua6_Lateral_orbitofrontal_R
28.230	33.155	-21.097	15.000	1	Sub005_R-OFC-Hua7_Lateral_orbitofrontal_R
31.376	34.295	-19.785	15.000	1	Sub005_R-OFC-Hua8_Lateral_orbitofrontal_R
34.523	35.435	-18.474	16.000	1	Sub005_R-OFC-Hua9_Pars_orbitalis_R
37.669	36.575	-17.162	16.000	1	Sub005_R-OFC-Hua10_Pars_orbitalis_R
40.816	37.715	-15.851	16.000	1	Sub005_R-OFC-Hua11_Pars_orbitalis_R
43.963	38.855	-14.539	16.000	1	Sub005_R-OFC-Hua12_Pars_orbitalis_R
5.901	-0.341	-9.231	31.000	1	Sub005_R-Nac-Hua1_VentralDC_R
7.993	2.137	-7.114	32.000	1	Sub005_R-Nac-Hua2_Accumbens_R
10.085	4.614	-4.997	32.000	1	Sub005_R-Nac-Hua3_Accumbens_R
12.177	7.092	-2.880	3.000	1	Sub005_R-Nac-Hua4_White_R
14.269	9.569	-0.763	3.000	1	Sub005_R-Nac-Hua5_White_R
16.361	12.047	1.355	3.000	1	Sub005_R-Nac-Hua6_White_R
18.454	14.525	3.472	3.000	1	Sub005_R-Nac-Hua7_White_R
20.546	17.002	5.589	3.000	1	Sub005_R-Nac-Hua8_White_R
22.638	19.480	7.706	3.000	1	Sub005_R-Nac-Hua9_White_R
24.730	21.957	9.823	3.000	1	Sub005_R-Nac-Hua10_White_R
26.822	24.435	11.941	3.000	1	Sub005_R-Nac-Hua11_White_R
28.914	26.913	14.058	3.000	1	Sub005_R-Nac-Hua12_White_R
31.007	29.390	16.175	3.000	1	Sub005_R-Nac-Hua13_White_R
33.099	31.868	18.292	3.000	1	Sub005_R-Nac-Hua14_White_R
35.191	34.345	20.409	3.000	1	Sub005_R-Nac-Hua15_White_R
37.283	36.823	22.526	3.000	1	Sub005_R-Nac-Hua16_White_R
2.874	-4.287	-6.196	31.000	1	Sub005_R-BNST-Hua1_VentralDC_R
4.992	-3.319	-2.988	31.000	1	Sub005_R-BNST-Hua2_VentralDC_R
7.110	-2.351	0.220	3.000	1	Sub005_R-BNST-Hua3_White_R
9.229	-1.383	3.428	3.000	1	Sub005_R-BNST-Hua4_White_R
11.347	-0.415	6.635	3.000	1	Sub005_R-BNST-Hua5_White_R
13.465	0.552	9.843	3.000	1	Sub005_R-BNST-Hua6_White_R
15.583	1.520	13.051	3.000	1	Sub005_R-BNST-Hua7_White_R
17.701	2.488	16.258	3.000	1	Sub005_R-BNST-Hua8_White_R
19.819	3.456	19.466	3.000	1	Sub005_R-BNST-Hua9_White_R
21.937	4.424	22.674	3.000	1	Sub005_R-BNST-Hua10_White_R
24.055	5.392	25.882	3.000	1	Sub005_R-BNST-Hua11_White_R
26.173	6.360	29.089	3.000	1	Sub005_R-BNST-Hua12_White_R
28.291	7.328	32.297	3.000	1	Sub005_R-BNST-Hua13_White_R
30.409	8.296	35.505	3.000	1	Sub005_R-BNST-Hua14_White_R
32.527	9.264	38.713	3.000	1	Sub005_R-BNST-Hua15_White_R
34.645	10.232	41.920	3.000	1	Sub005_R-BNST-Hua16_White_R
6.963	-16.804	-13.203	31.000	1	Sub005_R-MFB-Hua1_VentralDC_R
8.309	-15.441	-9.576	31.000	1	Sub005_R-MFB-Hua2_VentralDC_R
9.655	-14.078	-5.950	31.000	1	Sub005_R-MFB-Hua3_VentralDC_R
11.000	-12.715	-2.323	31.000	1	Sub005_R-MFB-Hua4_VentralDC_R
12.346	-11.351	1.303	9.000	1	Sub005_R-MFB-Hua5_Thalamus_R
13.691	-9.988	4.930	9.000	1	Sub005_R-MFB-Hua6_Thalamus_R
15.037	-8.625	8.557	3.000	1	Sub005_R-MFB-Hua7_White_R
16.383	-7.262	12.183	3.000	1	Sub005_R-MFB-Hua8_White_R
17.728	-5.898	15.810	3.000	1	Sub005_R-MFB-Hua9_White_R
19.074	-4.535	19.436	3.000	1	Sub005_R-MFB-Hua10_White_R
20.419	-3.172	23.063	3.000	1	Sub005_R-MFB-Hua11_White_R
21.765	-1.809	26.689	3.000	1	Sub005_R-MFB-Hua12_White_R
23.111	-0.445	30.316	3.000	1	Sub005_R-MFB-Hua13_White_R
24.456	0.918	33.943	3.000	1	Sub005_R-MFB-Hua14_White_R
25.802	2.281	37.569	3.000	1	Sub005_R-MFB-Hua15_White_R
27.148	3.644	41.196	3.000	1	Sub005_R-MFB-Hua16_White_R
-10.557	-5.878	-20.145	33.000	1	Sub005_L-Amyg-MMa1_Amygdala_L
-15.306	-4.562	-20.307	33.000	1	Sub005_L-Amyg-MMa2_Amygdala_L
-20.055	-3.246	-20.468	33.000	1	Sub005_L-Amyg-MMa3_Amygdala_L
-24.804	-1.930	-20.630	33.000	1	Sub005_L-Amyg-MMa4_Amygdala_L
-29.553	-0.614	-20.792	34.000	1	Sub005_L-Amyg-MMa5_White_L
-34.302	0.702	-20.954	34.000	1	Sub005_L-Amyg-MMa6_White_L
-26.372	-14.391	-17.005	35.000	1	Sub005_L-Hip-BF1_Hippocampus_L
-31.144	-13.245	-17.535	35.000	1	Sub005_L-Hip-BF2_Hippocampus_L
-35.917	-12.100	-18.064	34.000	1	Sub005_L-Hip-BF3_White_L
-40.690	-10.954	-18.593	34.000	1	Sub005_L-Hip-BF4_White_L
-45.463	-9.808	-19.122	34.000	1	Sub005_L-Hip-BF5_White_L
-50.236	-8.662	-19.652	36.000	1	Sub005_L-Hip-BF6_Superior_temporal_L
-55.008	-7.516	-20.181	37.000	1	Sub005_L-Hip-BF7_Middle_temporal_L
-59.781	-6.371	-20.710	34.000	1	Sub005_L-Hip-BF8_White_L
-4.710	17.211	-17.058	38.000	1	Sub005_L-Cing-MMa1_Medial_orbitofrontal_L
-5.371	19.731	-11.772	34.000	1	Sub005_L-Cing-MMa2_White_L
-6.033	22.251	-6.486	34.000	1	Sub005_L-Cing-MMa3_White_L
-6.694	24.771	-1.200	34.000	1	Sub005_L-Cing-MMa4_White_L
-7.356	27.291	4.086	34.000	1	Sub005_L-Cing-MMa5_White_L
-8.017	29.811	9.372	34.000	1	Sub005_L-Cing-MMa6_White_L
-0.230	-26.864	-0.672	39.000	1	Sub005_L-LH-MMc1_3rd-Ventricle
-4.236	-25.114	2.107	40.000	1	Sub005_L-LH-MMc2_Thalamus_L
-8.242	-23.364	4.886	40.000	1	Sub005_L-LH-MMc3_Thalamus_L
-12.249	-21.614	7.664	40.000	1	Sub005_L-LH-MMc4_Thalamus_L
-16.255	-19.864	10.443	40.000	1	Sub005_L-LH-MMc5_Thalamus_L
-20.261	-18.115	13.222	34.000	1	Sub005_L-LH-MMc6_White_L
-39.337	-3.983	-8.918	41.000	1	Sub005_L-insul-Hua1_Insula_L
-39.034	-1.742	-5.470	41.000	1	Sub005_L-insul-Hua2_Insula_L
-38.730	0.498	-2.022	41.000	1	Sub005_L-insul-Hua3_Insula_L
-38.426	2.739	1.425	41.000	1	Sub005_L-insul-Hua4_Insula_L
-38.122	4.979	4.873	42.000	1	Sub005_L-insul-Hua5_Pars_opercularis_L
-37.819	7.220	8.320	42.000	1	Sub005_L-insul-Hua6_Pars_opercularis_L
-37.515	9.460	11.768	42.000	1	Sub005_L-insul-Hua7_Pars_opercularis_L
-37.211	11.701	15.215	42.000	1	Sub005_L-insul-Hua8_Pars_opercularis_L
-36.908	13.941	18.663	34.000	1	Sub005_L-insul-Hua9_White_L
-36.604	16.182	22.111	34.000	1	Sub005_L-insul-Hua10_White_L
-36.300	18.423	25.558	43.000	1	Sub005_L-insul-Hua11_Rostral_mid_front_L
-35.997	20.663	29.006	34.000	1	Sub005_L-insul-Hua12_White_L
-35.693	22.904	32.453	34.000	1	Sub005_L-insul-Hua13_White_L
-35.389	25.144	35.901	34.000	1	Sub005_L-insul-Hua14_White_L
-35.085	27.385	39.348	34.000	1	Sub005_L-insul-Hua15_White_L
-34.782	29.625	42.796	43.000	1	Sub005_L-insul-Hua16_Rostral_mid_front_L
-7.425	26.666	-26.433	38.000	1	Sub005_L-OFC-Hua1_Medial_orbitofrontal_L
-10.338	27.994	-24.832	44.000	1	Sub005_L-OFC-Hua2_Lateral_orbitofrontal_L
-13.251	29.321	-23.230	44.000	1	Sub005_L-OFC-Hua3_Lateral_orbitofrontal_L
-16.164	30.649	-21.629	44.000	1	Sub005_L-OFC-Hua4_Lateral_orbitofrontal_L
-19.077	31.977	-20.027	44.000	1	Sub005_L-OFC-Hua5_Lateral_orbitofrontal_L
-21.990	33.304	-18.425	44.000	1	Sub005_L-OFC-Hua6_Lateral_orbitofrontal_L
-24.903	34.632	-16.824	44.000	1	Sub005_L-OFC-Hua7_Lateral_orbitofrontal_L
-27.816	35.959	-15.222	44.000	1	Sub005_L-OFC-Hua8_Lateral_orbitofrontal_L
-30.729	37.287	-13.620	45.000	1	Sub005_L-OFC-Hua9_Pars_orbitalis_L
-33.642	38.615	-12.019	45.000	1	Sub005_L-OFC-Hua10_Pars_orbitalis_L
-36.555	39.942	-10.417	45.000	1	Sub005_L-OFC-Hua11_Pars_orbitalis_L
-39.468	41.270	-8.816	45.000	1	Sub005_L-OFC-Hua12_Pars_orbitalis_L
-2.933	5.131	-9.659	38.000	1	Sub005_L-Nac-Hua1_Medial_orbitofrontal_L
-5.107	6.954	-7.135	38.000	1	Sub005_L-Nac-Hua2_Medial_orbitofrontal_L
-7.281	8.777	-4.612	46.000	1	Sub005_L-Nac-Hua3_Accumbens_L
-9.454	10.600	-2.088	46.000	1	Sub005_L-Nac-Hua4_Accumbens_L
-11.628	12.424	0.435	47.000	1	Sub005_L-Nac-Hua5_Caudate_L
-13.802	14.247	2.958	47.000	1	Sub005_L-Nac-Hua6_Caudate_L
-15.976	16.070	5.482	47.000	1	Sub005_L-Nac-Hua7_Caudate_L
-18.150	17.893	8.005	34.000	1	Sub005_L-Nac-Hua8_White_L
-20.324	19.716	10.529	34.000	1	Sub005_L-Nac-Hua9_White_L
-22.498	21.539	13.052	34.000	1	Sub005_L-Nac-Hua10_White_L
-24.672	23.362	15.575	34.000	1	Sub005_L-Nac-Hua11_White_L
-26.846	25.186	18.099	34.000	1	Sub005_L-Nac-Hua12_White_L
-29.020	27.009	20.622	34.000	1	Sub005_L-Nac-Hua13_White_L
-31.194	28.832	23.146	34.000	1	Sub005_L-Nac-Hua14_White_L
-33.368	30.655	25.669	34.000	1	Sub005_L-Nac-Hua15_White_L
-35.542	32.478	28.192	43.000	1	Sub005_L-Nac-Hua16_Rostral_mid_front_L
-3.032	-2.010	-5.802	41.000	1	Sub005_L-BNST-Hua1_Insula_L
-5.282	-0.752	-2.997	34.000	1	Sub005_L-BNST-Hua2_White_L
-7.533	0.506	-0.191	34.000	1	Sub005_L-BNST-Hua3_White_L
-9.783	1.765	2.614	34.000	1	Sub005_L-BNST-Hua4_White_L
-12.033	3.023	5.419	34.000	1	Sub005_L-BNST-Hua5_White_L
-14.283	4.281	8.224	34.000	1	Sub005_L-BNST-Hua6_White_L
-16.534	5.539	11.030	34.000	1	Sub005_L-BNST-Hua7_White_L
-18.784	6.797	13.835	34.000	1	Sub005_L-BNST-Hua8_White_L
-21.034	8.055	16.640	34.000	1	Sub005_L-BNST-Hua9_White_L
-23.284	9.313	19.445	34.000	1	Sub005_L-BNST-Hua10_White_L
-25.535	10.572	22.250	34.000	1	Sub005_L-BNST-Hua11_White_L
-27.785	11.830	25.056	34.000	1	Sub005_L-BNST-Hua12_White_L
-30.035	13.088	27.861	34.000	1	Sub005_L-BNST-Hua13_White_L
-32.286	14.346	30.666	34.000	1	Sub005_L-BNST-Hua14_White_L
-34.536	15.604	33.471	34.000	1	Sub005_L-BNST-Hua15_White_L
-36.786	16.862	36.277	34.000	1	Sub005_L-BNST-Hua16_White_L
-2.877	-15.683	-12.827	48.000	1	Sub005_L-MFB-Hua1_VentralDC_L
-5.005	-14.752	-9.746	48.000	1	Sub005_L-MFB-Hua2_VentralDC_L
-7.134	-13.821	-6.664	48.000	1	Sub005_L-MFB-Hua3_VentralDC_L
-9.263	-12.891	-3.583	48.000	1	Sub005_L-MFB-Hua4_VentralDC_L
-11.391	-11.960	-0.502	40.000	1	Sub005_L-MFB-Hua5_Thalamus_L
-13.520	-11.030	2.579	34.000	1	Sub005_L-MFB-Hua6_White_L
-15.649	-10.099	5.660	34.000	1	Sub005_L-MFB-Hua7_White_L
-17.778	-9.169	8.741	34.000	1	Sub005_L-MFB-Hua8_White_L
-19.906	-8.238	11.823	34.000	1	Sub005_L-MFB-Hua9_White_L
-22.035	-7.307	14.904	34.000	1	Sub005_L-MFB-Hua10_White_L
-24.164	-6.377	17.985	34.000	1	Sub005_L-MFB-Hua11_White_L
-26.293	-5.446	21.066	34.000	1	Sub005_L-MFB-Hua12_White_L
-28.421	-4.516	24.147	34.000	1	Sub005_L-MFB-Hua13_White_L
-30.550	-3.585	27.229	34.000	1	Sub005_L-MFB-Hua14_White_L
-32.679	-2.655	30.310	34.000	1	Sub005_L-MFB-Hua15_White_L
-34.808	-1.724	33.391	34.000	1	Sub005_L-MFB-Hua16_White_L
-16.667	-4.377	-16.113	33.000	1	Sub007_A1_Amygdala_L
-20.175	-3.270	-17.260	33.000	1	Sub007_A2_Amygdala_L
-23.683	-2.163	-18.408	33.000	1	Sub007_A3_Amygdala_L
-27.190	-1.056	-19.556	33.000	1	Sub007_A4_Amygdala_L
-30.698	0.052	-20.703	41.000	1	Sub007_A5_Insula_L
-34.206	1.159	-21.851	34.000	1	Sub007_A6_White_L
-37.714	2.266	-22.999	34.000	1	Sub007_A7_White_L
-41.222	3.373	-24.146	34.000	1	Sub007_A8_White_L
-44.730	4.481	-25.294	34.000	1	Sub007_A9_White_L
-48.237	5.588	-26.442	34.000	1	Sub007_A10_White_L
-28.283	-13.169	-18.849	35.000	1	Sub007_B3_Hippocampus_L
-32.058	-13.786	-18.001	35.000	1	Sub007_B4_Hippocampus_L
-35.833	-14.404	-17.152	34.000	1	Sub007_B5_White_L
-39.607	-15.021	-16.304	34.000	1	Sub007_B6_White_L
-43.382	-15.638	-15.455	34.000	1	Sub007_B7_White_L
-47.156	-16.256	-14.607	34.000	1	Sub007_B8_White_L
-50.931	-16.873	-13.758	34.000	1	Sub007_B9_White_L
-54.705	-17.491	-12.910	34.000	1	Sub007_B10_White_L
-58.480	-18.108	-12.061	36.000	1	Sub007_B11_Superior_temporal_L
-62.254	-18.725	-11.213	36.000	1	Sub007_B12_Superior_temporal_L
-27.005	-17.824	-12.224	35.000	1	Sub007_C1_Hippocampus_L
-20.734	-11.934	-20.546	35.000	1	Sub007_B1_Hippocampus_L
-24.509	-12.552	-19.698	35.000	1	Sub007_B2_Hippocampus_L
-29.920	-20.425	-11.835	35.000	1	Sub007_C2_Hippocampus_L
-32.835	-23.026	-11.446	35.000	1	Sub007_C3_Hippocampus_L
-35.751	-25.627	-11.057	35.000	1	Sub007_C4_Hippocampus_L
-38.666	-28.227	-10.667	34.000	1	Sub007_C5_White_L
-41.582	-30.828	-10.278	34.000	1	Sub007_C6_White_L
-44.497	-33.429	-9.889	34.000	1	Sub007_C7_White_L
-47.413	-36.029	-9.500	34.000	1	Sub007_C8_White_L
-50.328	-38.630	-9.111	37.000	1	Sub007_C9_Middle_temporal_L
-53.243	-41.231	-8.721	37.000	1	Sub007_C10_Middle_temporal_L
-56.159	-43.832	-8.332	34.000	1	Sub007_C11_White_L
-59.074	-46.432	-7.943	37.000	1	Sub007_C12_Middle_temporal_L
-32.662	-5.892	5.993	34.000	1	Sub007_D1_White_L
-36.360	-4.865	6.267	34.000	1	Sub007_D2_White_L
-40.057	-3.839	6.541	41.000	1	Sub007_D3_Insula_L
-43.755	-2.812	6.815	41.000	1	Sub007_D4_Insula_L
-47.452	-1.786	7.089	49.000	1	Sub007_D5_Precentral_L
-51.150	-0.759	7.363	34.000	1	Sub007_D6_White_L
-54.848	0.267	7.637	34.000	1	Sub007_D7_White_L
-58.545	1.294	7.911	49.000	1	Sub007_D8_Precentral_L
-33.291	-12.613	0.386	50.000	1	Sub007_E1_Putamen_L
-37.144	-12.378	0.015	41.000	1	Sub007_E2_Insula_L
-40.997	-12.143	-0.356	41.000	1	Sub007_E3_Insula_L
-44.849	-11.908	-0.727	36.000	1	Sub007_E4_Superior_temporal_L
-48.702	-11.672	-1.097	36.000	1	Sub007_E5_Superior_temporal_L
-52.555	-11.437	-1.468	36.000	1	Sub007_E6_Superior_temporal_L
-56.408	-11.202	-1.839	36.000	1	Sub007_E7_Superior_temporal_L
-60.261	-10.967	-2.210	36.000	1	Sub007_E8_Superior_temporal_L
-18.467	-12.315	-27.515	51.000	1	Sub007_F1_Entorhinal_L
-22.229	-11.543	-27.853	35.000	1	Sub007_F2_Hippocampus_L
-25.992	-10.772	-28.190	35.000	1	Sub007_F3_Hippocampus_L
-29.754	-10.000	-28.527	35.000	1	Sub007_F4_Hippocampus_L
-33.517	-9.229	-28.865	52.000	1	Sub007_F5_Fusiform_L
-37.279	-8.457	-29.202	34.000	1	Sub007_F6_White_L
-41.042	-7.686	-29.540	34.000	1	Sub007_F7_White_L
-44.804	-6.914	-29.877	34.000	1	Sub007_F8_White_L
-48.567	-6.143	-30.214	37.000	1	Sub007_F9_Middle_temporal_L
-52.330	-5.371	-30.552	37.000	1	Sub007_F10_Middle_temporal_L
-1.049	41.290	3.428	53.000	1	Sub007_G1_Rostral_ant_cing_L
-4.893	40.737	3.004	53.000	1	Sub007_G2_Rostral_ant_cing_L
-8.736	40.184	2.581	34.000	1	Sub007_G3_White_L
-12.580	39.632	2.158	34.000	1	Sub007_G4_White_L
-16.423	39.079	1.734	34.000	1	Sub007_G5_White_L
-20.267	38.526	1.311	34.000	1	Sub007_G6_White_L
-24.110	37.973	0.887	34.000	1	Sub007_G7_White_L
-27.954	37.420	0.464	34.000	1	Sub007_G8_White_L
-31.797	36.867	0.041	34.000	1	Sub007_G9_White_L
-35.641	36.314	-0.383	34.000	1	Sub007_G10_White_L
-39.484	35.761	-0.806	34.000	1	Sub007_G11_White_L
-43.328	35.208	-1.230	34.000	1	Sub007_G12_White_L
-13.915	-41.565	-9.008	54.000	1	Sub007_H1_Parahippocampal_L
-17.703	-42.177	-9.768	34.000	1	Sub007_H2_White_L
-21.490	-42.789	-10.528	54.000	1	Sub007_H3_Parahippocampal_L
-25.278	-43.401	-11.288	52.000	1	Sub007_H4_Fusiform_L
-29.066	-44.013	-12.048	52.000	1	Sub007_H5_Fusiform_L
-32.853	-44.625	-12.808	34.000	1	Sub007_H6_White_L
-36.641	-45.237	-13.568	34.000	1	Sub007_H7_White_L
-40.429	-45.849	-14.328	55.000	1	Sub007_H8_Inferior_temporal_L
-44.216	-46.461	-15.088	55.000	1	Sub007_H9_Inferior_temporal_L
-48.004	-47.073	-15.848	34.000	1	Sub007_H10_White_L
-51.792	-47.685	-16.608	34.000	1	Sub007_H11_White_L
-55.580	-48.297	-17.368	37.000	1	Sub007_H12_Middle_temporal_L
-59.367	-48.908	-18.128	37.000	1	Sub007_H13_Middle_temporal_L
-63.155	-49.520	-18.888	13.000	1	Sub007_H14_N_A
-66.943	-50.132	-19.648	13.000	1	Sub007_H15_N_A
-70.730	-50.744	-20.408	13.000	1	Sub007_H16_N_A
-8.711	-40.565	30.634	34.000	1	Sub007_I1_White_L
-12.481	-41.299	29.876	34.000	1	Sub007_I2_White_L
-16.251	-42.033	29.119	34.000	1	Sub007_I3_White_L
-20.021	-42.767	28.361	34.000	1	Sub007_I4_White_L
-23.791	-43.501	27.603	34.000	1	Sub007_I5_White_L
-27.561	-44.235	26.845	34.000	1	Sub007_I6_White_L
-31.331	-44.969	26.088	34.000	1	Sub007_I7_White_L
-35.101	-45.704	25.330	34.000	1	Sub007_I8_White_L
-38.871	-46.438	24.572	34.000	1	Sub007_I9_White_L
-42.641	-47.172	23.814	34.000	1	Sub007_I10_White_L
-10.190	-15.186	0.617	40.000	1	Sub007_J1_Thalamus_L
-12.790	-14.845	3.626	40.000	1	Sub007_J2_Thalamus_L
-15.391	-14.503	6.635	40.000	1	Sub007_J3_Thalamus_L
-17.992	-14.161	9.644	34.000	1	Sub007_J4_White_L
-20.593	-13.820	12.653	34.000	1	Sub007_J5_White_L
-23.194	-13.478	15.661	34.000	1	Sub007_J6_White_L
-25.795	-13.136	18.670	34.000	1	Sub007_J7_White_L
-28.396	-12.795	21.679	34.000	1	Sub007_J8_White_L
-30.997	-12.453	24.688	34.000	1	Sub007_J9_White_L
-33.598	-12.111	27.697	34.000	1	Sub007_J10_White_L
-36.199	-11.769	30.706	34.000	1	Sub007_J11_White_L
-38.799	-11.428	33.715	34.000	1	Sub007_J12_White_L
-41.400	-11.086	36.724	49.000	1	Sub007_J13_Precentral_L
-44.001	-10.744	39.733	34.000	1	Sub007_J14_White_L
-46.602	-10.403	42.741	34.000	1	Sub007_J15_White_L
-49.203	-10.061	45.750	34.000	1	Sub007_J16_White_L
-15.369	-6.970	-21.586	33.000	1	Sub008_A-Amy-mTL1_Amygdala_L
-18.910	-6.258	-21.775	33.000	1	Sub008_A-Amy-mTL2_Amygdala_L
-22.450	-5.546	-21.964	33.000	1	Sub008_A-Amy-mTL3_Amygdala_L
-25.991	-4.834	-22.153	33.000	1	Sub008_A-Amy-mTL4_Amygdala_L
-29.531	-4.122	-22.342	33.000	1	Sub008_A-Amy-mTL5_Amygdala_L
-33.071	-3.410	-22.531	34.000	1	Sub008_A-Amy-mTL6_White_L
-36.612	-2.698	-22.720	34.000	1	Sub008_A-Amy-mTL7_White_L
-40.152	-1.986	-22.909	34.000	1	Sub008_A-Amy-mTL8_White_L
-43.692	-1.274	-23.098	36.000	1	Sub008_A-Amy-mTL9_Superior_temporal_L
-47.233	-0.562	-23.287	37.000	1	Sub008_A-Amy-mTL10_Middle_temporal_L
-50.773	0.151	-23.476	34.000	1	Sub008_A-Amy-mTL11_White_L
-54.313	0.863	-23.665	34.000	1	Sub008_A-Amy-mTL12_White_L
-28.028	-18.436	-25.105	35.000	1	Sub008_B-aHippo1_Hippocampus_L
-31.556	-18.737	-24.327	35.000	1	Sub008_B-aHippo2_Hippocampus_L
-35.084	-19.038	-23.549	34.000	1	Sub008_B-aHippo3_White_L
-38.612	-19.339	-22.771	34.000	1	Sub008_B-aHippo4_White_L
-42.140	-19.640	-21.993	34.000	1	Sub008_B-aHippo5_White_L
-45.668	-19.941	-21.215	34.000	1	Sub008_B-aHippo6_White_L
-49.196	-20.242	-20.437	34.000	1	Sub008_B-aHippo7_White_L
-52.724	-20.543	-19.659	34.000	1	Sub008_B-aHippo8_White_L
-56.252	-20.844	-18.881	55.000	1	Sub008_B-aHippo9_Inferior_temporal_L
-59.780	-21.145	-18.103	37.000	1	Sub008_B-aHippo10_Middle_temporal_L
-25.297	-28.379	-12.528	35.000	1	Sub008_C-cHippo1_Hippocampus_L
-27.846	-30.957	-11.625	35.000	1	Sub008_C-cHippo2_Hippocampus_L
-30.394	-33.536	-10.721	35.000	1	Sub008_C-cHippo3_Hippocampus_L
-32.943	-36.114	-9.818	56.000	1	Sub008_C-cHippo4_Lingual_L
-35.491	-38.692	-8.915	34.000	1	Sub008_C-cHippo5_White_L
-38.039	-41.270	-8.012	34.000	1	Sub008_C-cHippo6_White_L
-40.588	-43.848	-7.108	34.000	1	Sub008_C-cHippo7_White_L
-43.136	-46.427	-6.205	34.000	1	Sub008_C-cHippo8_White_L
-45.684	-49.005	-5.302	34.000	1	Sub008_C-cHippo9_White_L
-48.233	-51.583	-4.398	34.000	1	Sub008_C-cHippo10_White_L
-50.781	-54.161	-3.495	34.000	1	Sub008_C-cHippo11_White_L
-53.330	-56.739	-2.592	37.000	1	Sub008_C-cHippo12_Middle_temporal_L
-21.920	13.559	-37.603	57.000	1	Sub008_D-aTL1_Temporal_pole_L
-25.266	14.529	-36.544	57.000	1	Sub008_D-aTL2_Temporal_pole_L
-28.612	15.498	-35.484	36.000	1	Sub008_D-aTL3_Superior_temporal_L
-31.959	16.468	-34.425	36.000	1	Sub008_D-aTL4_Superior_temporal_L
-35.305	17.437	-33.366	36.000	1	Sub008_D-aTL5_Superior_temporal_L
-38.651	18.407	-32.307	36.000	1	Sub008_D-aTL6_Superior_temporal_L
-41.998	19.376	-31.248	36.000	1	Sub008_D-aTL7_Superior_temporal_L
-45.344	20.346	-30.189	36.000	1	Sub008_D-aTL8_Superior_temporal_L
-39.220	-7.089	-7.892	41.000	1	Sub008_F-insula-sTL1_Insula_L
-42.268	-8.356	-6.210	36.000	1	Sub008_F-insula-sTL2_Superior_temporal_L
-45.317	-9.623	-4.529	34.000	1	Sub008_F-insula-sTL3_White_L
-48.366	-10.890	-2.848	34.000	1	Sub008_F-insula-sTL4_White_L
-51.414	-12.157	-1.166	36.000	1	Sub008_F-insula-sTL5_Superior_temporal_L
-54.463	-13.424	0.515	36.000	1	Sub008_F-insula-sTL6_Superior_temporal_L
-57.512	-14.691	2.196	34.000	1	Sub008_F-insula-sTL7_White_L
-60.560	-15.958	3.878	34.000	1	Sub008_F-insula-sTL8_White_L
-63.609	-17.224	5.559	36.000	1	Sub008_F-insula-sTL9_Superior_temporal_L
-66.658	-18.491	7.240	36.000	1	Sub008_F-insula-sTL10_Superior_temporal_L
-2.236	22.039	-19.447	38.000	1	Sub008_G-OFC1_Medial_orbitofrontal_L
-5.508	23.208	-18.332	38.000	1	Sub008_G-OFC2_Medial_orbitofrontal_L
-8.779	24.377	-17.217	34.000	1	Sub008_G-OFC3_White_L
-12.051	25.547	-16.101	44.000	1	Sub008_G-OFC4_Lateral_orbitofrontal_L
-15.323	26.716	-14.986	34.000	1	Sub008_G-OFC5_White_L
-18.595	27.886	-13.871	34.000	1	Sub008_G-OFC6_White_L
-21.867	29.055	-12.755	34.000	1	Sub008_G-OFC7_White_L
-25.139	30.224	-11.640	34.000	1	Sub008_G-OFC8_White_L
-28.411	31.394	-10.525	44.000	1	Sub008_G-OFC9_Lateral_orbitofrontal_L
-31.682	32.563	-9.409	44.000	1	Sub008_G-OFC10_Lateral_orbitofrontal_L
-34.954	33.733	-8.294	34.000	1	Sub008_G-OFC11_White_L
-38.226	34.902	-7.179	34.000	1	Sub008_G-OFC12_White_L
-41.498	36.071	-6.063	34.000	1	Sub008_G-OFC13_White_L
-44.770	37.241	-4.948	34.000	1	Sub008_G-OFC14_White_L
-48.042	38.410	-3.833	58.000	1	Sub008_G-OFC15_Pars_triangularis_L
-51.314	39.579	-2.717	58.000	1	Sub008_G-OFC16_Pars_triangularis_L
-19.561	-47.546	-18.863	59.000	1	Sub008_H-vTL1_Cerebellum_L
-23.023	-48.599	-18.521	52.000	1	Sub008_H-vTL2_Fusiform_L
-26.484	-49.651	-18.178	52.000	1	Sub008_H-vTL3_Fusiform_L
-29.946	-50.703	-17.836	52.000	1	Sub008_H-vTL4_Fusiform_L
-33.407	-51.756	-17.494	34.000	1	Sub008_H-vTL5_White_L
-36.869	-52.808	-17.152	34.000	1	Sub008_H-vTL6_White_L
-40.330	-53.861	-16.810	34.000	1	Sub008_H-vTL7_White_L
-43.792	-54.913	-16.467	34.000	1	Sub008_H-vTL8_White_L
-47.254	-55.965	-16.125	34.000	1	Sub008_H-vTL9_White_L
-50.715	-57.018	-15.783	55.000	1	Sub008_H-vTL10_Inferior_temporal_L
0.898	-43.837	15.399	60.000	1	Sub008_I-PCC1_CC_Posterior
-2.644	-44.106	16.107	20.000	1	Sub008_I-PCC2_Isthmus_cingulate_L
-6.187	-44.374	16.816	20.000	1	Sub008_I-PCC3_Isthmus_cingulate_L
-9.729	-44.643	17.525	34.000	1	Sub008_I-PCC4_White_L
-13.272	-44.912	18.233	34.000	1	Sub008_I-PCC5_White_L
-16.814	-45.181	18.942	34.000	1	Sub008_I-PCC6_White_L
-20.356	-45.450	19.651	34.000	1	Sub008_I-PCC7_White_L
-23.899	-45.719	20.359	34.000	1	Sub008_I-PCC8_White_L
-27.441	-45.988	21.068	34.000	1	Sub008_I-PCC9_White_L
-30.983	-46.256	21.777	34.000	1	Sub008_I-PCC10_White_L
-34.526	-46.525	22.485	34.000	1	Sub008_I-PCC11_White_L
-38.068	-46.794	23.194	61.000	1	Sub008_I-PCC12_Inferior_parietal_L
-41.611	-47.063	23.903	61.000	1	Sub008_I-PCC13_Inferior_parietal_L
-45.153	-47.332	24.611	34.000	1	Sub008_I-PCC14_White_L
-48.695	-47.601	25.320	34.000	1	Sub008_I-PCC15_White_L
-52.238	-47.870	26.029	34.000	1	Sub008_I-PCC16_White_L
0.592	23.583	18.562	62.000	1	Sub008_J-ACC1_Caudal_ant_cing_L
-2.311	25.571	19.646	62.000	1	Sub008_J-ACC2_Caudal_ant_cing_L
-5.214	27.559	20.730	62.000	1	Sub008_J-ACC3_Caudal_ant_cing_L
-8.116	29.547	21.815	62.000	1	Sub008_J-ACC4_Caudal_ant_cing_L
-11.019	31.535	22.899	63.000	1	Sub008_J-ACC5_Superior_frontal_L
-13.922	33.523	23.983	34.000	1	Sub008_J-ACC6_White_L
-16.825	35.511	25.067	34.000	1	Sub008_J-ACC7_White_L
-19.727	37.499	26.151	43.000	1	Sub008_J-ACC8_Rostral_mid_front_L
-22.630	39.487	27.236	43.000	1	Sub008_J-ACC9_Rostral_mid_front_L
-25.533	41.475	28.320	43.000	1	Sub008_J-ACC10_Rostral_mid_front_L
-28.436	43.463	29.404	43.000	1	Sub008_J-ACC11_Rostral_mid_front_L
-31.338	45.451	30.488	43.000	1	Sub008_J-ACC12_Rostral_mid_front_L
-9.761	-21.295	3.556	40.000	1	Sub008_K-CMT1_Thalamus_L
-12.021	-19.083	5.595	40.000	1	Sub008_K-CMT2_Thalamus_L
-14.281	-16.871	7.635	40.000	1	Sub008_K-CMT3_Thalamus_L
-16.542	-14.659	9.675	34.000	1	Sub008_K-CMT4_White_L
-18.802	-12.447	11.715	34.000	1	Sub008_K-CMT5_White_L
-21.062	-10.235	13.755	34.000	1	Sub008_K-CMT6_White_L
-23.322	-8.023	15.794	34.000	1	Sub008_K-CMT7_White_L
-25.582	-5.811	17.834	34.000	1	Sub008_K-CMT8_White_L
-27.842	-3.599	19.874	34.000	1	Sub008_K-CMT9_White_L
-30.103	-1.387	21.914	34.000	1	Sub008_K-CMT10_White_L
-32.363	0.825	23.954	34.000	1	Sub008_K-CMT11_White_L
-34.623	3.038	25.994	34.000	1	Sub008_K-CMT12_White_L
-36.883	5.250	28.033	34.000	1	Sub008_K-CMT13_White_L
-39.143	7.462	30.073	49.000	1	Sub008_K-CMT14_Precentral_L
38.501	-21.647	32.013	3.000	1	Sub008_M-r-preCe1_White_R
39.508	-21.825	35.843	23.000	1	Sub008_M-r-preCe2_Supramarginal_R
40.516	-22.004	39.672	23.000	1	Sub008_M-r-preCe3_Supramarginal_R
41.523	-22.182	43.502	10.000	1	Sub008_M-r-preCe4_Postcentral_R
42.530	-22.360	47.331	10.000	1	Sub008_M-r-preCe5_Postcentral_R
43.538	-22.538	51.161	10.000	1	Sub008_M-r-preCe6_Postcentral_R
44.545	-22.716	54.990	10.000	1	Sub008_M-r-preCe7_Postcentral_R
45.552	-22.894	58.820	10.000	1	Sub008_M-r-preCe8_Postcentral_R
-8.328	-44.026	7.213	20.000	1	Sub008_E-preCu-anguar1_Isthmus_cingulate_L
-10.303	-44.206	10.535	34.000	1	Sub008_E-preCu-anguar2_White_L
-12.277	-44.385	13.857	34.000	1	Sub008_E-preCu-anguar3_White_L
-14.252	-44.565	17.179	34.000	1	Sub008_E-preCu-anguar4_White_L
-16.226	-44.744	20.501	34.000	1	Sub008_E-preCu-anguar5_White_L
-18.200	-44.924	23.823	34.000	1	Sub008_E-preCu-anguar6_White_L
-20.175	-45.103	27.145	34.000	1	Sub008_E-preCu-anguar7_White_L
-22.149	-45.283	30.467	34.000	1	Sub008_E-preCu-anguar8_White_L
-24.124	-45.462	33.789	34.000	1	Sub008_E-preCu-anguar9_White_L
-26.098	-45.642	37.111	34.000	1	Sub008_E-preCu-anguar10_White_L
-28.073	-45.821	40.433	34.000	1	Sub008_E-preCu-anguar11_White_L
-30.047	-46.001	43.755	34.000	1	Sub008_E-preCu-anguar12_White_L
-32.022	-46.180	47.077	34.000	1	Sub008_E-preCu-anguar13_White_L
-33.996	-46.360	50.399	34.000	1	Sub008_E-preCu-anguar14_White_L
-16.643	-51.491	-9.872	56.000	1	Sub008_L-occipital1_Lingual_L
-18.986	-53.897	-8.152	34.000	1	Sub008_L-occipital2_White_L
-21.329	-56.304	-6.431	34.000	1	Sub008_L-occipital3_White_L
-23.672	-58.710	-4.711	34.000	1	Sub008_L-occipital4_White_L
-26.015	-61.116	-2.990	34.000	1	Sub008_L-occipital5_White_L
-28.358	-63.523	-1.269	34.000	1	Sub008_L-occipital6_White_L
-30.701	-65.929	0.451	34.000	1	Sub008_L-occipital7_White_L
-33.044	-68.335	2.172	34.000	1	Sub008_L-occipital8_White_L
-35.387	-70.741	3.892	34.000	1	Sub008_L-occipital9_White_L
-37.730	-73.148	5.613	34.000	1	Sub008_L-occipital10_White_L
-40.073	-75.554	7.333	34.000	1	Sub008_L-occipital11_White_L
-42.416	-77.960	9.054	61.000	1	Sub008_L-occipital12_Inferior_parietal_L
24.251	-9.274	-21.403	2.000	1	Sub009_A1_Amygdala_R
27.411	-7.793	-20.694	2.000	1	Sub009_A2_Amygdala_R
30.572	-6.313	-19.986	2.000	1	Sub009_A3_Amygdala_R
33.732	-4.833	-19.278	3.000	1	Sub009_A4_White_R
36.893	-3.352	-18.570	3.000	1	Sub009_A5_White_R
40.053	-1.872	-17.862	3.000	1	Sub009_A6_White_R
43.214	-0.392	-17.154	3.000	1	Sub009_A7_White_R
46.374	1.089	-16.445	3.000	1	Sub009_A8_White_R
49.534	2.569	-15.737	6.000	1	Sub009_A9_Middle_temporal_R
52.695	4.050	-15.029	6.000	1	Sub009_A10_Middle_temporal_R
25.874	-19.430	-21.931	1.000	1	Sub009_B1_Hippocampus_R
29.181	-20.364	-20.787	1.000	1	Sub009_B2_Hippocampus_R
32.489	-21.298	-19.643	1.000	1	Sub009_B3_Hippocampus_R
35.797	-22.231	-18.499	3.000	1	Sub009_B4_White_R
39.104	-23.165	-17.355	3.000	1	Sub009_B5_White_R
42.412	-24.099	-16.211	3.000	1	Sub009_B6_White_R
45.720	-25.032	-15.067	3.000	1	Sub009_B7_White_R
49.027	-25.966	-13.923	3.000	1	Sub009_B8_White_R
52.335	-26.900	-12.779	3.000	1	Sub009_B9_White_R
55.643	-27.833	-11.635	8.000	1	Sub009_B10_Inferior_temporal_R
58.950	-28.767	-10.490	8.000	1	Sub009_B11_Inferior_temporal_R
55.855	5.530	-14.321	6.000	1	Sub009_A11_Middle_temporal_R
59.016	7.010	-13.613	6.000	1	Sub009_A12_Middle_temporal_R
62.258	-29.701	-9.346	8.000	1	Sub009_B12_Inferior_temporal_R
65.566	-30.634	-8.202	8.000	1	Sub009_B13_Inferior_temporal_R
68.874	-31.568	-7.058	13.000	1	Sub009_B14_N_A
72.181	-32.502	-5.914	13.000	1	Sub009_B15_N_A
75.489	-33.435	-4.770	13.000	1	Sub009_B16_N_A
15.880	-53.151	3.268	64.000	1	Sub009_C1_Lingual_R
17.603	-56.445	4.075	3.000	1	Sub009_C2_White_R
19.327	-59.739	4.882	3.000	1	Sub009_C3_White_R
21.050	-63.033	5.690	3.000	1	Sub009_C4_White_R
22.773	-66.327	6.497	3.000	1	Sub009_C5_White_R
24.496	-69.621	7.304	3.000	1	Sub009_C6_White_R
26.220	-72.914	8.112	3.000	1	Sub009_C7_White_R
27.943	-76.208	8.919	3.000	1	Sub009_C8_White_R
29.666	-79.502	9.726	65.000	1	Sub009_C9_Lateral_occipital_R
31.390	-82.796	10.534	65.000	1	Sub009_C10_Lateral_occipital_R
22.096	-29.681	-5.327	3.000	1	Sub009_D1_White_R
25.153	-31.724	-5.243	3.000	1	Sub009_D2_White_R
28.210	-33.766	-5.160	65.000	1	Sub009_D3_Lateral_occipital_R
31.267	-35.809	-5.076	65.000	1	Sub009_D4_Lateral_occipital_R
34.324	-37.851	-4.992	3.000	1	Sub009_D5_White_R
37.381	-39.894	-4.909	65.000	1	Sub009_D6_Lateral_occipital_R
40.439	-41.936	-4.825	3.000	1	Sub009_D7_White_R
43.496	-43.979	-4.741	3.000	1	Sub009_D8_White_R
46.553	-46.022	-4.658	65.000	1	Sub009_D9_Lateral_occipital_R
49.610	-48.064	-4.574	65.000	1	Sub009_D10_Lateral_occipital_R
52.667	-50.107	-4.491	13.000	1	Sub009_D11_N_A
55.724	-52.149	-4.407	13.000	1	Sub009_D12_N_A
3.800	-41.061	23.989	17.000	1	Sub009_E1_Isthmus_cingulate_R
5.575	-44.053	25.546	17.000	1	Sub009_E2_Isthmus_cingulate_R
7.349	-47.045	27.102	17.000	1	Sub009_E3_Isthmus_cingulate_R
9.124	-50.037	28.659	18.000	1	Sub009_E4_Precuneus_R
10.899	-53.029	30.215	18.000	1	Sub009_E5_Precuneus_R
12.674	-56.020	31.771	3.000	1	Sub009_E6_White_R
14.449	-59.012	33.328	3.000	1	Sub009_E7_White_R
16.224	-62.004	34.884	18.000	1	Sub009_E8_Precuneus_R
17.999	-64.996	36.441	66.000	1	Sub009_E9_Cuneus_R
19.773	-67.988	37.997	67.000	1	Sub009_E10_Superior_parietal_R
21.548	-70.980	39.554	67.000	1	Sub009_E11_Superior_parietal_R
23.323	-73.972	41.110	13.000	1	Sub009_E12_N_A
18.334	-41.901	5.905	3.000	1	Sub009_F1_White_R
20.663	-44.419	7.473	3.000	1	Sub009_F2_White_R
22.991	-46.936	9.041	17.000	1	Sub009_F3_Isthmus_cingulate_R
25.319	-49.454	10.608	3.000	1	Sub009_F4_White_R
27.647	-51.972	12.176	3.000	1	Sub009_F5_White_R
29.976	-54.490	13.743	3.000	1	Sub009_F6_White_R
32.304	-57.008	15.311	3.000	1	Sub009_F7_White_R
34.632	-59.526	16.878	3.000	1	Sub009_F8_White_R
36.961	-62.044	18.446	65.000	1	Sub009_F9_Lateral_occipital_R
39.289	-64.562	20.013	65.000	1	Sub009_F10_Lateral_occipital_R
41.617	-67.080	21.581	65.000	1	Sub009_F11_Lateral_occipital_R
43.946	-69.598	23.148	13.000	1	Sub009_F12_N_A
32.086	-23.174	19.857	3.000	1	Sub009_G1_White_R
34.669	-25.457	21.316	3.000	1	Sub009_G2_White_R
37.253	-27.739	22.774	4.000	1	Sub009_G3_Insula_R
39.836	-30.022	24.232	23.000	1	Sub009_G4_Supramarginal_R
42.420	-32.304	25.690	3.000	1	Sub009_G5_White_R
45.003	-34.587	27.148	23.000	1	Sub009_G6_Supramarginal_R
47.587	-36.869	28.607	3.000	1	Sub009_G7_White_R
50.170	-39.151	30.065	19.000	1	Sub009_G8_Inferior_parietal_R
52.754	-41.434	31.523	19.000	1	Sub009_G9_Inferior_parietal_R
55.337	-43.716	32.981	19.000	1	Sub009_G10_Inferior_parietal_R
7.300	-26.855	31.833	17.000	1	Sub009_H1_Isthmus_cingulate_R
7.794	-27.070	35.729	3.000	1	Sub009_H2_White_R
8.287	-27.284	39.626	3.000	1	Sub009_H3_White_R
8.781	-27.498	43.523	3.000	1	Sub009_H4_White_R
9.274	-27.713	47.420	18.000	1	Sub009_H5_Precuneus_R
9.768	-27.927	51.317	18.000	1	Sub009_H6_Precuneus_R
10.262	-28.142	55.214	18.000	1	Sub009_H7_Precuneus_R
10.755	-28.356	59.111	18.000	1	Sub009_H8_Precuneus_R
11.249	-28.570	63.008	3.000	1	Sub009_H9_White_R
11.742	-28.785	66.905	3.000	1	Sub009_H10_White_R
12.236	-28.999	70.802	67.000	1	Sub009_H11_Superior_parietal_R
12.729	-29.213	74.699	67.000	1	Sub009_H12_Superior_parietal_R
18.435	-43.339	-2.985	68.000	1	Sub009_I1_Parahippocampal_R
20.774	-46.023	-1.757	68.000	1	Sub009_I2_Parahippocampal_R
23.112	-48.708	-0.529	3.000	1	Sub009_I3_White_R
25.451	-51.392	0.698	3.000	1	Sub009_I4_White_R
27.790	-54.077	1.926	3.000	1	Sub009_I5_White_R
30.128	-56.761	3.153	3.000	1	Sub009_I6_White_R
32.467	-59.446	4.381	3.000	1	Sub009_I7_White_R
34.806	-62.130	5.608	3.000	1	Sub009_I8_White_R
37.145	-64.815	6.836	3.000	1	Sub009_I9_White_R
39.483	-67.499	8.063	65.000	1	Sub009_I10_Lateral_occipital_R
41.822	-70.184	9.291	65.000	1	Sub009_I11_Lateral_occipital_R
44.161	-72.868	10.519	65.000	1	Sub009_I12_Lateral_occipital_R
12.560	-47.156	31.923	3.000	1	Sub009_J1_White_R
15.206	-48.847	33.953	3.000	1	Sub009_J2_White_R
17.851	-50.538	35.984	3.000	1	Sub009_J3_White_R
20.497	-52.229	38.015	3.000	1	Sub009_J4_White_R
23.142	-53.921	40.046	67.000	1	Sub009_J5_Superior_parietal_R
25.788	-55.612	42.077	67.000	1	Sub009_J6_Superior_parietal_R
28.434	-57.303	44.108	13.000	1	Sub009_J7_N_A
31.079	-58.994	46.139	13.000	1	Sub009_J8_N_A
33.725	-60.685	48.170	13.000	1	Sub009_J9_N_A
36.371	-62.376	50.201	13.000	1	Sub009_J10_N_A
